<svg width="400" height="117" viewBox="0 0 400 117" fill="none" xmlns="http://www.w3.org/2000/svg">
<path fill-rule="evenodd" clip-rule="evenodd" d="M281.387 7.463C280.838 7.812 280.827 8.859 280.872 53.972C280.916 98.642 280.918 98.861 281.25 99.105C281.602 99.363 290.081 99.356 290.684 99.098C291.112 98.914 291.183 94.846 291.158 72.083C291.145 60.717 291.187 51.214 291.25 50.967C291.313 50.72 291.281 50.264 291.179 49.955C290.592 48.176 290.974 46.59 292.086 46.188C292.802 45.93 292.984 46.068 293.691 47.405C293.882 47.765 294.173 48.178 294.339 48.322C294.505 48.466 294.813 48.996 295.024 49.5C295.234 50.004 295.652 50.651 295.953 50.936C296.254 51.222 296.5 51.568 296.5 51.705C296.5 51.842 296.726 52.239 297.002 52.586C297.279 52.934 297.635 53.589 297.794 54.042C297.988 54.593 298.23 54.942 298.528 55.096C298.777 55.226 299.052 55.569 299.154 55.878C299.254 56.181 299.635 56.827 300.001 57.314C300.367 57.802 300.667 58.299 300.667 58.421C300.667 58.542 300.844 58.853 301.062 59.112C301.279 59.371 301.627 59.996 301.834 60.5C302.041 61.004 302.383 61.577 302.592 61.772C302.802 61.968 303.124 62.423 303.308 62.783C303.492 63.143 303.87 63.683 304.149 63.981C304.428 64.28 304.703 64.774 304.76 65.079C304.817 65.384 305.088 65.848 305.362 66.109C305.636 66.37 305.958 66.808 306.077 67.083C306.196 67.358 306.511 67.821 306.776 68.112C307.04 68.403 307.36 68.928 307.485 69.279C307.611 69.63 307.917 70.15 308.165 70.436C308.414 70.721 308.759 71.35 308.933 71.833C309.129 72.378 309.388 72.775 309.615 72.878C309.817 72.97 310.091 73.316 310.224 73.648C310.358 73.979 310.695 74.536 310.973 74.885C311.252 75.235 311.597 75.873 311.74 76.304C311.905 76.799 312.139 77.149 312.375 77.252C312.58 77.343 312.899 77.722 313.083 78.096C313.266 78.47 313.617 79.032 313.862 79.346C314.107 79.66 314.36 80.142 314.425 80.417C314.489 80.692 314.76 81.148 315.026 81.43C315.293 81.712 315.662 82.342 315.847 82.829C316.032 83.317 316.369 83.861 316.595 84.039C316.822 84.217 317.128 84.6 317.277 84.89C317.426 85.18 317.718 85.575 317.925 85.769C318.132 85.963 318.438 86.554 318.605 87.081C318.82 87.764 319.023 88.094 319.308 88.224C319.529 88.324 319.851 88.709 320.024 89.078C320.196 89.448 320.557 90.05 320.825 90.417C321.093 90.783 321.36 91.271 321.418 91.5C321.476 91.729 321.701 92.104 321.917 92.333C322.133 92.563 322.472 93.184 322.669 93.714C322.882 94.286 323.196 94.787 323.442 94.949C323.67 95.098 324.01 95.546 324.197 95.944C324.384 96.341 324.605 96.667 324.687 96.667C324.938 96.667 325.473 97.68 325.591 98.379C325.673 98.866 325.826 99.107 326.184 99.31C326.449 99.46 326.745 99.822 326.842 100.114C326.939 100.405 327.248 100.93 327.529 101.28C327.81 101.63 328.184 102.248 328.359 102.653C328.535 103.057 328.782 103.47 328.908 103.569C329.033 103.669 329.303 104.162 329.506 104.667C329.71 105.171 330.082 105.771 330.334 106C330.585 106.229 330.95 106.731 331.144 107.116C331.339 107.501 331.605 107.876 331.737 107.949C332.081 108.142 332.498 109.007 332.499 109.53C332.5 109.839 332.659 110.091 333.016 110.344C333.299 110.546 333.677 111.051 333.855 111.467C334.109 112.059 334.222 112.178 334.381 112.019C334.651 111.749 334.759 20.151 334.49 19.648C334.249 19.198 324.671 19.177 324.299 19.625C324.125 19.834 324.067 24.916 324 45.688L323.917 71.491L323.548 71.86C322.901 72.507 321.69 72.001 321.273 70.909C320.595 69.134 320.429 68.807 320.121 68.642C319.946 68.549 319.623 68.066 319.403 67.569C319.184 67.073 318.926 66.667 318.83 66.667C318.733 66.667 318.514 66.339 318.342 65.938C318.17 65.537 317.768 64.865 317.447 64.445C317.126 64.025 316.776 63.415 316.669 63.089C316.561 62.764 316.323 62.417 316.14 62.319C315.957 62.221 315.594 61.691 315.334 61.14C315.073 60.59 314.745 60.012 314.603 59.855C314.462 59.699 314.231 59.295 314.09 58.958C313.949 58.621 313.576 58.088 313.262 57.773C312.948 57.459 312.597 56.889 312.483 56.508C312.368 56.126 312.133 55.738 311.96 55.645C311.787 55.552 311.506 55.154 311.337 54.759C311.168 54.365 310.761 53.689 310.432 53.258C310.103 52.827 309.833 52.37 309.833 52.243C309.833 52.116 309.59 51.736 309.292 51.398C308.72 50.751 307.96 49.496 307.26 48.043C307.028 47.562 306.64 47 306.397 46.793C306.153 46.586 305.785 46.039 305.578 45.577C305.371 45.115 305.079 44.634 304.928 44.509C304.777 44.384 304.501 43.926 304.313 43.491C304.126 43.055 303.784 42.523 303.552 42.308C303.32 42.093 302.955 41.523 302.741 41.042C302.527 40.56 302.291 40.167 302.218 40.166C302.144 40.166 301.821 39.679 301.5 39.083C301.179 38.488 300.857 38 300.785 38C300.712 38 300.439 37.524 300.179 36.943C299.918 36.362 299.514 35.696 299.282 35.463C299.049 35.231 298.767 34.733 298.654 34.356C298.541 33.979 298.273 33.556 298.059 33.416C297.844 33.275 297.552 32.88 297.409 32.538C297.266 32.196 296.969 31.729 296.75 31.5C296.531 31.271 296.2 30.741 296.015 30.323C295.83 29.905 295.523 29.422 295.333 29.25C295.143 29.078 294.837 28.595 294.652 28.177C294.467 27.759 294.137 27.229 293.918 27C293.7 26.771 293.377 26.245 293.2 25.831C293.023 25.417 292.753 24.974 292.6 24.847C292.447 24.72 292.055 24.14 291.73 23.559C291.405 22.978 291.065 22.457 290.973 22.4C290.881 22.343 290.671 21.981 290.506 21.596C290.34 21.211 290.1 20.788 289.972 20.656C289.557 20.229 289.047 19.427 288.92 19C288.852 18.771 288.625 18.396 288.416 18.167C288.207 17.938 287.844 17.375 287.609 16.917C287.375 16.458 287.005 15.92 286.788 15.719C286.571 15.519 286.307 15.069 286.202 14.719C286.097 14.369 285.709 13.748 285.339 13.34C284.97 12.931 284.621 12.444 284.564 12.257C284.508 12.07 284.323 11.765 284.153 11.579C283.983 11.393 283.732 10.92 283.594 10.529C283.455 10.137 283.078 9.494 282.754 9.099C282.431 8.705 282.084 8.146 281.983 7.858C281.793 7.31 281.712 7.257 281.387 7.463ZM42.882 12.475C42.271 13.005 42.146 13.235 41.916 14.25C41.543 15.895 41.539 15.906 41.016 16.564C40.704 16.955 40.506 17.447 40.431 18.011C40.301 18.987 39.871 20.167 39.644 20.167C39.428 20.167 39.163 20.901 38.901 22.229C38.777 22.859 38.527 23.625 38.346 23.932C38.165 24.239 37.857 25.036 37.661 25.703C37.466 26.371 37.114 27.198 36.88 27.542C36.646 27.886 36.316 28.747 36.147 29.455C35.979 30.162 35.701 30.931 35.53 31.162C35.177 31.639 34.938 32.336 34.671 33.667C34.57 34.171 34.306 34.846 34.084 35.167C33.862 35.487 33.558 36.237 33.409 36.833C33.26 37.429 32.951 38.192 32.722 38.528C32.493 38.865 32.19 39.652 32.047 40.278C31.904 40.903 31.535 41.89 31.227 42.471C30.919 43.052 30.667 43.698 30.667 43.906C30.667 44.435 30.344 45.312 29.898 46C29.689 46.321 29.393 47.108 29.239 47.75C29.085 48.392 28.785 49.179 28.573 49.5C28.361 49.821 28.035 50.671 27.848 51.39C27.661 52.109 27.357 52.942 27.171 53.242C26.986 53.542 26.713 54.325 26.565 54.982C26.416 55.639 26.124 56.429 25.915 56.737C25.705 57.045 25.385 57.904 25.202 58.645C24.997 59.472 24.706 60.187 24.447 60.495C24.198 60.79 23.946 61.392 23.833 61.957C23.517 63.544 23.401 63.889 22.96 64.537C22.728 64.878 22.418 65.69 22.271 66.342C22.123 66.994 21.851 67.741 21.666 68.001C21.481 68.261 21.191 69.027 21.022 69.702C20.694 71.015 20.413 71.667 20.174 71.667C19.979 71.667 19.724 72.488 19.49 73.873C19.357 74.658 19.158 75.175 18.829 75.589C18.423 76.1 18 77.364 18 78.068C18 78.188 17.825 78.544 17.612 78.859C17.398 79.173 17.066 80.01 16.874 80.719C16.681 81.428 16.337 82.229 16.109 82.5C15.881 82.771 15.655 83.2 15.606 83.454C15.557 83.709 15.433 84.343 15.332 84.865C15.23 85.386 15.003 85.996 14.827 86.22C14.385 86.782 14.16 87.414 13.994 88.564C13.891 89.274 13.729 89.674 13.408 90.009C13.093 90.338 12.87 90.875 12.641 91.858C12.464 92.621 12.181 93.396 12.013 93.58C11.536 94.106 11.384 94.507 11.254 95.583C11.124 96.655 10.956 97.088 10.501 97.527C10.342 97.679 10.045 98.499 9.838 99.349C9.632 100.2 9.326 101.088 9.158 101.323C8.99 101.558 8.728 102.2 8.575 102.75C8.422 103.3 8.069 104.17 7.791 104.683C6.833 106.447 8.017 106.998 9.57901 105.514C9.85601 105.251 10.458 104.848 10.917 104.619C11.375 104.39 11.889 104.049 12.059 103.861C12.229 103.673 12.58 103.472 12.839 103.415C13.098 103.358 13.405 103.198 13.52 103.06C13.771 102.756 15.069 102.091 15.71 101.937C15.963 101.876 16.364 101.609 16.6 101.344C16.837 101.078 17.394 100.705 17.839 100.514C18.284 100.322 18.699 100.082 18.762 99.981C18.825 99.879 19.223 99.643 19.647 99.456C20.07 99.27 20.713 98.864 21.076 98.555C21.457 98.23 22 97.951 22.363 97.893C22.806 97.822 23.113 97.634 23.401 97.256C23.688 96.88 24.091 96.631 24.751 96.424C25.269 96.261 25.733 96.02 25.784 95.889C25.834 95.758 26.316 95.428 26.854 95.156C27.393 94.884 27.833 94.602 27.833 94.528C27.833 94.35 29.061 93.667 29.382 93.667C29.521 93.667 29.942 93.411 30.316 93.098C30.691 92.785 31.354 92.393 31.79 92.226C32.226 92.06 32.759 91.716 32.973 91.462C33.188 91.208 33.453 91 33.562 91C33.672 91 34.167 90.738 34.663 90.419C35.16 90.099 35.832 89.753 36.158 89.649C36.483 89.545 36.938 89.286 37.167 89.073C37.396 88.86 38.02 88.486 38.554 88.242C39.087 87.998 39.568 87.684 39.621 87.545C39.674 87.406 40.1 87.123 40.567 86.916C41.034 86.708 41.558 86.382 41.731 86.19C41.904 85.998 42.453 85.688 42.952 85.501C43.451 85.314 44.039 84.948 44.258 84.687C44.504 84.396 44.965 84.129 45.454 83.996C45.986 83.851 46.406 83.595 46.72 83.223C46.979 82.917 47.274 82.667 47.376 82.667C47.642 82.667 49.012 81.997 49.481 81.638C49.699 81.47 50.019 81.333 50.191 81.333C50.362 81.333 50.723 81.123 50.992 80.867C51.26 80.61 51.878 80.216 52.365 79.992C52.852 79.767 53.425 79.377 53.64 79.125C53.854 78.873 54.17 78.667 54.342 78.667C54.514 78.667 54.909 78.443 55.22 78.17C55.531 77.898 56.265 77.459 56.851 77.196C57.437 76.933 58.024 76.588 58.156 76.429C58.288 76.271 58.751 75.961 59.185 75.741C59.619 75.521 60.261 75.144 60.612 74.904C61.86 74.051 63.667 74.691 63.667 75.987C63.667 76.762 64.27 78.341 64.674 78.624C64.848 78.746 65.141 79.332 65.324 79.927C65.521 80.562 65.831 81.162 66.076 81.38C66.342 81.615 66.586 82.115 66.746 82.75C66.893 83.334 67.145 83.872 67.354 84.044C67.55 84.206 67.882 84.814 68.093 85.395C68.304 85.975 68.664 86.727 68.894 87.066C69.123 87.404 69.435 88.053 69.586 88.508C69.737 88.964 69.998 89.41 70.165 89.499C70.332 89.588 70.675 90.189 70.928 90.833C71.181 91.477 71.484 92.084 71.601 92.181C71.719 92.279 71.976 92.844 72.174 93.438C72.371 94.031 72.707 94.682 72.921 94.883C73.134 95.085 73.471 95.735 73.668 96.327C73.866 96.92 74.165 97.501 74.334 97.619C74.502 97.737 74.692 98.077 74.755 98.375C74.865 98.895 75.835 100.315 76.475 100.894C76.82 101.206 77.932 100.822 79.227 99.943C79.568 99.712 80.22 99.398 80.675 99.247C81.131 99.096 81.577 98.835 81.666 98.667C81.82 98.38 82.735 97.968 83.667 97.766C85.16 97.443 85.749 96.062 84.918 94.833C84.701 94.513 84.377 93.828 84.198 93.311C84.019 92.795 83.724 92.224 83.542 92.042C83.361 91.861 83.159 91.429 83.094 91.082C82.97 90.418 82.601 89.718 82.202 89.385C82.071 89.276 81.748 88.569 81.484 87.814C81.219 87.059 80.865 86.286 80.695 86.096C80.526 85.906 80.287 85.487 80.164 85.167C80.041 84.846 79.739 84.283 79.494 83.917C79.249 83.55 78.96 82.98 78.853 82.651C78.746 82.321 78.426 81.686 78.144 81.241C77.861 80.795 77.533 80.11 77.415 79.718C77.297 79.326 77.013 78.782 76.783 78.508C76.552 78.235 76.203 77.528 76.007 76.937C75.81 76.347 75.478 75.679 75.269 75.453C75.06 75.227 74.716 74.505 74.505 73.848C74.289 73.177 73.991 72.584 73.825 72.495C73.662 72.408 73.363 71.83 73.16 71.21C72.958 70.59 72.619 69.896 72.408 69.667C72.196 69.438 71.858 68.8 71.657 68.25C71.456 67.7 71.152 67.096 70.981 66.908C70.81 66.72 70.513 66.082 70.32 65.491C70.128 64.9 69.838 64.267 69.676 64.083C69.514 63.9 68.873 62.7 68.253 61.417C67.632 60.133 66.997 58.896 66.842 58.667C66.687 58.438 66.432 57.907 66.277 57.487C66.121 57.067 65.81 56.474 65.584 56.168C65.359 55.863 65.062 55.224 64.924 54.75C64.786 54.275 64.447 53.602 64.17 53.254C63.893 52.906 63.666 52.5 63.665 52.352C63.663 51.961 62.932 50.454 62.619 50.196C62.472 50.074 62.187 49.478 61.985 48.871C61.783 48.263 61.478 47.617 61.309 47.435C61.034 47.141 60.333 45.527 60.333 45.189C60.333 45.117 60.148 44.884 59.921 44.671C59.695 44.458 59.394 43.888 59.253 43.403C59.112 42.919 58.827 42.311 58.619 42.053C58.41 41.795 58.062 41.133 57.845 40.583C57.628 40.033 57.357 39.471 57.242 39.333C57.128 39.196 56.799 38.562 56.512 37.924C56.225 37.287 55.892 36.649 55.773 36.508C55.654 36.366 55.424 35.891 55.262 35.452C55.1 35.013 54.787 34.439 54.567 34.178C54.347 33.916 54.014 33.207 53.827 32.603C53.641 31.999 53.307 31.309 53.086 31.07C52.865 30.832 52.527 30.164 52.335 29.588C52.143 29.011 51.842 28.409 51.667 28.25C51.491 28.091 51.187 27.48 50.992 26.892C50.796 26.303 50.461 25.615 50.248 25.361C50.034 25.107 49.705 24.46 49.516 23.922C49.327 23.384 49.022 22.784 48.839 22.589C48.655 22.394 48.357 21.803 48.176 21.277C47.995 20.75 47.699 20.131 47.518 19.902C47.338 19.672 46.991 18.964 46.747 18.327C46.504 17.69 46.235 17.125 46.149 17.072C46.063 17.019 45.767 16.478 45.491 15.87C45.216 15.263 44.886 14.649 44.758 14.508C44.631 14.366 44.331 13.729 44.092 13.092C43.853 12.456 43.64 11.92 43.62 11.901C43.6 11.882 43.268 12.141 42.882 12.475ZM381.417 18.085C380.775 18.765 380.16 19.323 380.049 19.327C379.939 19.33 379.714 19.526 379.549 19.762C379.302 20.116 375.823 23.787 374.901 24.667C374.757 24.804 374.327 25.221 373.945 25.594C373.563 25.967 373.044 26.4 372.792 26.556C372.54 26.713 372.333 26.921 372.333 27.019C372.333 27.117 371.744 27.772 371.024 28.474C370.304 29.176 369.626 29.919 369.518 30.125C369.41 30.331 369.241 30.5 369.142 30.5C368.966 30.5 364.099 35.321 363.978 35.615C363.944 35.697 363.635 35.936 363.292 36.146C362.948 36.356 362.667 36.589 362.667 36.664C362.667 36.772 361.443 38.05 360.35 39.083C360.048 39.369 357.999 41.393 357.529 41.869C355.366 44.065 354.333 45.172 354.333 45.294C354.333 45.374 354.116 45.547 353.849 45.678C353.583 45.809 352.894 46.442 352.318 47.083C351.742 47.725 351.058 48.381 350.799 48.541C350.539 48.701 350.242 49.019 350.138 49.246C350.034 49.474 349.818 49.702 349.656 49.753C349.193 49.9 348.953 50.292 348.83 51.102L348.717 51.853L349.492 52.246C349.923 52.465 350.354 52.83 350.463 53.069C350.632 53.44 350.764 53.5 351.416 53.5C352.115 53.5 352.193 53.544 352.448 54.08C352.665 54.534 352.896 54.716 353.518 54.923C354.091 55.113 354.402 55.34 354.636 55.735C354.847 56.092 355.131 56.318 355.452 56.382C355.724 56.436 356.258 56.742 356.64 57.061C357.022 57.38 357.595 57.727 357.914 57.833C358.233 57.938 358.651 58.244 358.842 58.512C359.033 58.78 359.29 59 359.412 59C359.535 59 359.952 59.264 360.339 59.588C360.726 59.911 361.397 60.328 361.831 60.515C362.264 60.701 362.782 61.074 362.981 61.344C363.18 61.613 363.491 61.833 363.671 61.833C363.852 61.833 364.281 62.085 364.625 62.394C364.969 62.702 365.602 63.108 366.032 63.296C366.462 63.485 366.912 63.799 367.032 63.995C367.152 64.19 367.55 64.486 367.917 64.651C368.283 64.816 368.779 65.149 369.017 65.39C369.256 65.632 369.743 65.951 370.101 66.098C370.458 66.245 370.975 66.585 371.25 66.852C371.525 67.119 371.994 67.556 372.292 67.823C373.186 68.623 372.923 70.833 371.934 70.833C371.763 70.833 369.834 72.77 369.831 72.945C369.828 73.134 364.912 78 364.724 78C364.641 78 364.486 78.23 364.38 78.511C364.26 78.83 364.001 79.091 363.689 79.209C363.415 79.313 363.111 79.573 363.013 79.788C362.915 80.003 361.974 81.057 360.922 82.131C355.254 87.916 351.537 91.622 351.167 91.857C350.938 92.003 350.43 92.724 350.04 93.459L349.33 94.796L349.764 94.905C350.066 94.981 350.275 95.207 350.446 95.642C350.612 96.065 350.851 96.33 351.179 96.454C351.446 96.555 351.797 96.867 351.958 97.148C352.118 97.43 352.45 97.743 352.694 97.844C352.938 97.946 353.229 98.247 353.339 98.514C353.45 98.781 353.616 99 353.708 99C353.8 99 354.235 99.356 354.676 99.792C356.56 101.653 356.944 101.643 358.785 99.691C360.954 97.389 361.446 96.895 362.5 95.955C363.096 95.424 363.702 94.785 363.846 94.536C363.991 94.287 364.262 94.006 364.449 93.912C364.636 93.818 365.208 93.293 365.719 92.746C367.059 91.311 367.193 91.174 368.186 90.225C368.679 89.752 369.288 89.152 369.538 88.891C370.072 88.334 370.56 87.844 371.25 87.171C371.525 86.903 371.854 86.578 371.981 86.448C372.109 86.319 372.709 85.715 373.315 85.106C373.921 84.497 374.529 83.874 374.667 83.721C374.804 83.568 375.067 83.302 375.25 83.132C377 81.501 377.833 80.656 377.833 80.514C377.833 80.42 378.014 80.248 378.234 80.13C378.454 80.013 379.137 79.354 379.751 78.667C380.365 77.979 381.011 77.362 381.187 77.296C381.363 77.229 381.662 76.911 381.853 76.588C382.044 76.264 382.273 76 382.364 76C382.454 76 382.99 75.502 383.556 74.894C384.121 74.286 385.054 73.33 385.63 72.769C386.206 72.209 386.844 71.579 387.047 71.371C387.25 71.163 387.642 70.769 387.917 70.497C388.192 70.224 388.492 69.918 388.583 69.817C388.675 69.715 389.343 69.05 390.068 68.338L391.386 67.044L390.423 66.397C389.893 66.041 389.114 65.525 388.692 65.25C388.27 64.975 387.714 64.512 387.456 64.22C387.197 63.929 386.769 63.642 386.505 63.584C386.24 63.526 385.93 63.367 385.816 63.23C385.703 63.093 385.357 62.875 385.047 62.746C384.737 62.616 384.178 62.201 383.804 61.823C383.43 61.446 382.796 60.996 382.395 60.824C381.995 60.652 381.667 60.435 381.667 60.341C381.667 60.248 381.385 60.054 381.042 59.91C380.698 59.767 380.192 59.434 379.917 59.17C379.642 58.906 379.018 58.491 378.531 58.247C378.044 58.004 377.605 57.699 377.555 57.569C377.505 57.439 377.154 57.195 376.774 57.025C376.394 56.856 375.757 56.443 375.359 56.109C374.961 55.774 374.567 55.5 374.485 55.5C374.402 55.5 374.053 55.248 373.709 54.94C373.365 54.632 372.814 54.293 372.485 54.186C372.156 54.079 371.5 53.661 371.026 53.257C370.553 52.853 370.022 52.477 369.848 52.421C369.674 52.366 369.489 52.211 369.437 52.077C369.386 51.943 368.913 51.643 368.386 51.41C366.49 50.572 366.256 49.597 367.594 48.101C368.012 47.633 368.593 46.964 368.885 46.615C369.178 46.266 369.561 45.854 369.738 45.699C370.029 45.443 370.978 44.487 373.167 42.244C373.304 42.103 373.867 41.547 374.417 41.008C374.967 40.47 375.625 39.816 375.88 39.556C376.135 39.296 376.458 38.971 376.597 38.833C379.471 35.991 380.333 35.102 380.333 34.982C380.333 34.902 380.636 34.646 381.006 34.413C381.377 34.179 381.755 33.822 381.848 33.619C381.94 33.416 382.275 33.081 382.591 32.873C382.908 32.666 383.167 32.416 383.167 32.317C383.167 32.097 386.45 28.833 386.672 28.833C386.758 28.833 387.02 28.53 387.254 28.16C387.488 27.79 387.857 27.419 388.075 27.336C388.293 27.254 388.52 27.033 388.579 26.847C388.638 26.661 388.998 26.299 389.379 26.043C390.699 25.157 390.589 23.826 389.095 22.602C388.72 22.294 387.364 20.976 386.081 19.673C382.812 16.35 382.997 16.413 381.417 18.085ZM259.926 18.003C259.382 18.278 258.772 18.656 258.572 18.844C258.372 19.032 257.819 19.288 257.345 19.414C256.87 19.539 256.222 19.839 255.906 20.08C255.59 20.321 254.901 20.667 254.376 20.847C253.851 21.028 253.151 21.363 252.819 21.593C252.488 21.822 251.85 22.146 251.4 22.312C250.951 22.477 250.292 22.812 249.935 23.056C249.579 23.3 249.017 23.573 248.685 23.664C248.354 23.754 247.596 24.129 247 24.497C246.404 24.865 245.849 25.167 245.766 25.167C245.683 25.167 245.375 25.35 245.082 25.573C244.788 25.797 244.06 26.138 243.464 26.33C242.867 26.523 242.125 26.868 241.814 27.098C241.504 27.327 240.855 27.629 240.373 27.77C239.891 27.91 239.274 28.211 239.003 28.439C238.733 28.667 238.059 29.031 237.506 29.248C236.954 29.464 236.307 29.794 236.07 29.981C235.833 30.167 235.221 30.476 234.71 30.668C234.198 30.859 233.57 31.165 233.313 31.348C233.056 31.531 232.416 31.828 231.889 32.009C231.363 32.19 230.779 32.481 230.591 32.656C230.404 32.831 229.847 33.126 229.354 33.312C228.861 33.498 228.186 33.839 227.854 34.069C227.522 34.298 226.916 34.604 226.507 34.748C226.099 34.892 225.424 35.227 225.007 35.492C224.591 35.758 223.912 36.107 223.5 36.268C223.088 36.43 222.563 36.695 222.333 36.857C222.104 37.019 221.467 37.317 220.917 37.518C220.367 37.72 219.692 38.055 219.417 38.263C219.142 38.471 218.485 38.802 217.958 38.999C217.431 39.196 217 39.415 217 39.485C217 39.658 216.322 39.956 215.638 40.084C215.33 40.142 214.897 40.327 214.674 40.495L214.268 40.801L214.584 41.502C214.758 41.887 215.091 42.318 215.325 42.459C215.559 42.601 215.975 42.956 216.25 43.249C216.525 43.542 217.162 43.953 217.667 44.163C218.706 44.596 219.269 44.979 220.183 45.875C220.533 46.218 221.216 46.653 221.701 46.84C222.186 47.027 222.701 47.319 222.845 47.488C222.989 47.657 223.405 47.948 223.77 48.135C224.136 48.321 224.515 48.648 224.613 48.862C224.728 49.111 225.092 49.355 225.633 49.544C226.095 49.705 226.787 50.099 227.169 50.419C227.552 50.738 227.974 51 228.107 51C228.24 51 228.47 51.212 228.619 51.471C228.799 51.784 229.165 52.04 229.717 52.236C230.172 52.397 230.735 52.719 230.967 52.952C231.199 53.184 231.644 53.48 231.956 53.611C232.268 53.741 232.648 54.065 232.801 54.331C232.995 54.669 233.285 54.865 233.771 54.988C234.151 55.084 234.763 55.407 235.129 55.706C235.495 56.005 236.036 56.382 236.33 56.543C236.624 56.704 236.903 56.982 236.95 57.16C237.004 57.366 237.32 57.581 237.809 57.746C239.213 58.22 239.446 58.504 239.196 59.439C238.921 60.466 238.766 60.64 237.703 61.111C237.219 61.325 236.782 61.606 236.733 61.735C236.622 62.022 235.145 63.141 234.053 63.764C233.612 64.016 233.1 64.351 232.917 64.509C232.733 64.667 232.267 64.954 231.881 65.148C231.494 65.342 231.105 65.636 231.017 65.802C230.928 65.967 230.363 66.343 229.761 66.636C229.159 66.93 228.667 67.233 228.667 67.31C228.667 67.387 228.361 67.587 227.988 67.755C227.615 67.924 227.146 68.265 226.946 68.513C226.747 68.761 226.186 69.163 225.701 69.406C225.215 69.648 224.773 69.962 224.719 70.103C224.665 70.244 224.219 70.55 223.727 70.782C223.236 71.015 222.833 71.271 222.833 71.351C222.833 71.431 222.327 71.76 221.708 72.083C221.09 72.406 220.133 73.04 219.583 73.493C218.469 74.411 217.359 75.129 215.698 76.004L214.583 76.592L214.632 77.332C214.687 78.17 214.752 78.231 215.947 78.582C216.422 78.722 217.026 79.017 217.289 79.238C217.552 79.459 218.208 79.795 218.746 79.985C219.285 80.174 219.994 80.509 220.321 80.729C220.649 80.95 221.423 81.294 222.041 81.495C222.659 81.696 223.222 81.955 223.291 82.072C223.36 82.189 223.884 82.493 224.456 82.747C225.028 83.002 225.577 83.309 225.677 83.429C225.777 83.549 226.343 83.809 226.935 84.006C227.527 84.203 228.215 84.531 228.464 84.734C228.713 84.937 229.367 85.272 229.917 85.479C230.467 85.685 231.067 85.993 231.25 86.164C231.433 86.335 232.071 86.64 232.667 86.842C233.262 87.043 233.9 87.342 234.083 87.505C234.267 87.668 234.904 88.003 235.5 88.25C236.096 88.497 236.733 88.835 236.917 89.001C237.1 89.167 237.732 89.497 238.32 89.735C238.909 89.972 239.509 90.272 239.653 90.402C239.798 90.532 240.36 90.793 240.903 90.983C241.445 91.172 242.045 91.473 242.236 91.651C242.427 91.829 243.107 92.171 243.747 92.411C244.386 92.651 245.061 92.982 245.247 93.147C245.432 93.312 246.033 93.621 246.583 93.833C247.133 94.046 247.733 94.352 247.917 94.514C248.1 94.676 248.7 94.976 249.25 95.179C249.8 95.383 250.462 95.726 250.721 95.941C250.98 96.157 251.318 96.335 251.471 96.337C251.9 96.343 253.16 96.958 253.471 97.314C253.625 97.489 254.2 97.768 254.75 97.935C255.3 98.101 255.93 98.417 256.15 98.636C256.372 98.858 257.031 99.168 257.631 99.335C258.359 99.536 258.827 99.777 259.064 100.07C259.393 100.476 261.032 100.987 262.037 100.997C262.375 101.001 262.756 100.33 262.923 99.441C262.988 99.094 263.224 98.593 263.446 98.329C263.669 98.064 264.041 97.376 264.274 96.799C264.507 96.222 264.84 95.595 265.015 95.406C265.19 95.217 265.454 94.655 265.602 94.157C265.75 93.659 266.092 92.999 266.363 92.691C266.64 92.375 266.814 92.023 266.761 91.885C266.709 91.75 266.667 91.611 266.667 91.576C266.667 91.541 266.377 91.435 266.022 91.339C265.668 91.244 265.096 90.941 264.75 90.667C264.404 90.392 263.842 90.092 263.499 90C263.157 89.908 262.682 89.679 262.443 89.491C262.205 89.304 261.501 88.921 260.88 88.641C260.258 88.361 259.637 88.041 259.5 87.928C259.362 87.816 258.762 87.518 258.167 87.266C257.571 87.014 256.971 86.712 256.833 86.594C256.696 86.476 256.04 86.176 255.376 85.926C254.712 85.676 254.122 85.396 254.065 85.303C254.008 85.211 253.475 84.917 252.882 84.651C252.289 84.385 251.616 84.02 251.388 83.84C251.159 83.661 250.547 83.355 250.028 83.161C249.508 82.968 248.933 82.674 248.75 82.509C248.567 82.344 247.892 82.004 247.25 81.754C246.608 81.503 245.933 81.165 245.75 81.001C245.567 80.838 244.941 80.533 244.359 80.324C243.777 80.115 243.264 79.848 243.219 79.731C243.175 79.613 242.654 79.357 242.063 79.16C241.472 78.963 240.785 78.636 240.536 78.432C240.287 78.229 239.671 77.89 239.167 77.679C236.854 76.714 236.475 75.359 238.273 74.489C238.675 74.294 239.096 74.003 239.21 73.842C239.324 73.68 239.754 73.377 240.167 73.169C240.579 72.96 241.189 72.545 241.523 72.245C241.856 71.946 242.357 71.651 242.636 71.59C242.914 71.529 243.261 71.297 243.407 71.075C243.552 70.853 243.957 70.525 244.305 70.348C244.654 70.17 245.044 69.898 245.172 69.743C245.3 69.589 245.85 69.247 246.393 68.984C246.937 68.721 247.488 68.353 247.618 68.167C247.749 67.981 248.137 67.685 248.48 67.51C248.824 67.335 249.351 66.962 249.651 66.681C249.951 66.401 250.471 66.097 250.807 66.006C251.169 65.907 251.596 65.614 251.86 65.281C252.328 64.691 254.455 63.333 254.912 63.333C255.06 63.333 255.38 63.127 255.622 62.875C256.319 62.15 257.66 61.219 258.782 60.683C260.45 59.885 260.612 58.843 259.188 58.089C258.081 57.503 256.982 56.772 256.27 56.147C255.892 55.815 255.414 55.491 255.207 55.427C255.001 55.363 254.626 55.138 254.374 54.928C254.123 54.718 253.753 54.494 253.552 54.431C253.351 54.369 252.955 54.053 252.672 53.731C252.389 53.408 251.762 52.97 251.28 52.756C250.798 52.543 250.307 52.252 250.188 52.109C250.07 51.967 249.646 51.692 249.246 51.498C248.847 51.305 248.309 50.931 248.052 50.668C247.794 50.405 247.237 50.041 246.813 49.86C245.987 49.506 244.563 48.559 243.75 47.822C243.475 47.573 242.931 47.21 242.542 47.015C242.152 46.82 241.833 46.59 241.833 46.505C241.833 46.42 241.44 46.154 240.958 45.913C240.477 45.672 239.933 45.339 239.75 45.172C239.567 45.006 239.023 44.63 238.541 44.337C237.932 43.966 237.637 43.669 237.572 43.36C237.521 43.116 237.447 42.757 237.408 42.562C237.308 42.062 237.892 41.393 238.628 41.163C238.97 41.056 239.625 40.722 240.083 40.42C240.542 40.118 241.217 39.778 241.583 39.665C241.95 39.552 242.48 39.287 242.761 39.077C243.043 38.867 243.595 38.609 243.988 38.503C244.382 38.397 244.864 38.139 245.06 37.929C245.51 37.448 246.244 37.076 247.018 36.936C247.349 36.876 247.949 36.575 248.352 36.267C248.754 35.959 249.383 35.611 249.748 35.494C250.114 35.377 250.761 35.067 251.185 34.806C251.61 34.545 252.208 34.244 252.513 34.137C252.818 34.031 253.326 33.769 253.642 33.555C253.957 33.341 254.523 33.078 254.899 32.972C255.275 32.865 255.773 32.604 256.006 32.392C256.238 32.18 256.863 31.857 257.396 31.674C257.929 31.491 258.618 31.118 258.929 30.845C259.239 30.573 259.776 30.299 260.121 30.236C260.904 30.095 261.354 29.869 261.633 29.476C261.752 29.308 262.277 29.05 262.799 28.901C263.322 28.752 263.943 28.45 264.178 28.23C264.413 28.009 265.05 27.657 265.593 27.447L266.581 27.064L266.526 26.407C266.496 26.046 266.328 25.595 266.153 25.406C265.977 25.217 265.723 24.688 265.587 24.23C265.451 23.772 265.155 23.224 264.93 23.013C264.696 22.792 264.373 22.143 264.176 21.492C263.986 20.867 263.658 20.144 263.446 19.886C263.235 19.628 262.93 19.061 262.768 18.627C262.426 17.71 262.423 17.706 261.567 17.591C261.06 17.523 260.698 17.614 259.926 18.003ZM86.866 19.284C86.227 19.408 86.174 20.37 86.323 29.191C86.338 30.081 86.195 30.065 94.924 30.162C103.804 30.26 103.673 30.242 103.894 31.343C103.952 31.636 104 46.967 104 65.412C104 97.848 104.01 98.958 104.309 99.228C104.849 99.716 114.233 99.616 114.582 99.118C114.804 98.801 114.833 94.861 114.834 65.338C114.835 42.241 114.89 31.719 115.012 31.278C115.329 30.138 115.302 30.141 124.347 30.16C132.284 30.177 132.317 30.176 132.504 29.827C132.736 29.392 132.682 20.101 132.444 19.548L132.285 19.179L109.768 19.194C97.383 19.203 87.077 19.243 86.866 19.284ZM146.678 19.403C145.801 19.713 145.731 19.945 146.004 21.615C146.256 23.163 146.399 85.93 146.161 90.667C146.103 91.813 146.092 94.148 146.136 95.856L146.216 98.962L146.789 99.235C147.689 99.664 155.834 99.605 156.376 99.165L156.75 98.863V82.716C156.75 64.732 156.665 66.041 157.877 65.378C158.577 64.996 187.306 64.833 187.927 65.209C190.023 66.477 189.833 64.701 189.833 83.036C189.833 93.622 189.89 98.962 190.006 99.178C190.266 99.663 199.786 99.68 200.224 99.195C200.568 98.816 200.659 20.365 200.317 19.614L200.134 19.212L195.23 19.21L190.326 19.207L189.996 19.626C189.673 20.037 189.667 20.359 189.667 36.176V52.308L189.244 52.81C188.544 53.642 188.284 53.655 172.641 53.598L158.198 53.545L157.666 53.166C156.499 52.335 156.573 53.627 156.675 35.983L156.766 20.083L156.309 19.636L155.852 19.188L151.551 19.194C148.612 19.198 147.069 19.264 146.678 19.403ZM45.636 40.875C45.903 41.265 46.174 41.752 46.238 41.958C46.303 42.165 46.424 42.333 46.507 42.333C46.726 42.333 47.119 43.158 47.348 44.1C47.468 44.596 47.73 45.09 48.013 45.356C48.299 45.626 48.588 46.174 48.758 46.773C48.912 47.31 49.207 47.938 49.415 48.167C49.622 48.396 49.923 48.996 50.083 49.5C50.243 50.004 50.545 50.604 50.754 50.833C50.962 51.063 51.267 51.7 51.432 52.25C51.596 52.8 51.924 53.448 52.159 53.689C52.394 53.931 52.73 54.531 52.904 55.023C53.078 55.514 53.394 56.126 53.605 56.382C53.817 56.638 54.14 57.35 54.324 57.965C54.524 58.636 54.79 59.165 54.988 59.288C55.179 59.407 55.456 59.942 55.648 60.561C55.829 61.148 56.17 61.822 56.405 62.057C56.769 62.42 56.833 62.634 56.833 63.472C56.833 64.603 56.775 64.677 55.433 65.223C54.915 65.434 54.383 65.76 54.251 65.948C54.119 66.136 53.578 66.462 53.047 66.671C52.517 66.881 51.932 67.187 51.748 67.352C51.563 67.516 51.141 67.764 50.81 67.903C50.478 68.041 49.979 68.346 49.7 68.581C49.422 68.815 48.864 69.152 48.462 69.331C48.059 69.509 47.59 69.809 47.42 69.997C47.249 70.185 46.249 70.762 45.197 71.28C44.144 71.797 43.051 72.423 42.767 72.67C42.482 72.916 41.853 73.249 41.369 73.408C40.858 73.576 40.381 73.86 40.235 74.083C40.096 74.295 39.555 74.637 39.033 74.843C38.511 75.049 37.911 75.394 37.701 75.61C37.49 75.825 37.05 76.114 36.723 76.25C36.396 76.387 35.881 76.717 35.578 76.983C35.271 77.252 34.733 77.516 34.364 77.578C33.89 77.658 33.539 77.869 33.137 78.317C31.493 80.149 28.821 79.509 29.872 77.536C30.102 77.104 30.334 76.462 30.387 76.11C30.441 75.757 30.685 75.206 30.931 74.883C31.212 74.514 31.487 73.807 31.673 72.971C31.836 72.241 32.079 71.518 32.213 71.364C32.648 70.864 32.847 70.344 33.09 69.078C33.224 68.375 33.507 67.563 33.741 67.209C33.968 66.865 34.276 66.096 34.425 65.5C34.574 64.904 34.883 64.141 35.111 63.805C35.34 63.468 35.675 62.616 35.856 61.911C36.036 61.206 36.328 60.432 36.503 60.19C36.679 59.948 36.987 59.112 37.188 58.333C37.389 57.554 37.759 56.504 38.009 56C38.26 55.496 38.583 54.666 38.728 54.155C38.873 53.645 39.136 53.061 39.312 52.858C39.489 52.654 39.764 51.984 39.923 51.369C40.083 50.754 40.364 49.987 40.548 49.667C40.732 49.346 41.06 48.375 41.277 47.508C41.494 46.642 41.815 45.78 41.991 45.592C42.166 45.404 42.432 44.725 42.581 44.083C43.206 41.383 43.381 41.003 44.243 40.477C44.959 40.04 45.09 40.078 45.636 40.875Z" fill="#2B242E"/>
<path fill-rule="evenodd" clip-rule="evenodd" d="M280.161 5.783C280.099 9.142 280.206 98.515 280.273 98.781C280.519 99.764 281.035 99.853 286.145 99.799C290.589 99.752 290.832 99.733 291.28 99.399L291.75 99.047L291.784 73.399L291.817 47.75L292.177 47.458C292.675 47.054 292.755 47.081 293.18 47.792C293.385 48.135 293.724 48.604 293.932 48.833C294.141 49.063 294.456 49.587 294.633 50C294.81 50.413 295.208 51.061 295.519 51.441C296.07 52.116 296.707 53.158 297.452 54.601C297.655 54.994 297.971 55.395 298.154 55.493C298.337 55.591 298.643 56.026 298.835 56.461C299.027 56.895 299.432 57.625 299.735 58.083C300.038 58.542 300.587 59.442 300.954 60.083C302.001 61.916 302.186 62.212 303.26 63.783C303.815 64.595 304.325 65.405 304.394 65.583C304.462 65.762 304.74 66.21 305.01 66.579C305.949 67.859 307.164 69.751 307.166 69.935C307.166 70.037 307.402 70.412 307.689 70.769C307.976 71.125 308.36 71.754 308.542 72.167C308.724 72.579 309.039 73.104 309.244 73.333C309.448 73.563 309.803 74.087 310.032 74.5C310.891 76.043 311.888 77.588 312.109 77.718C312.234 77.792 312.534 78.242 312.776 78.718C313.017 79.194 313.382 79.808 313.588 80.083C313.793 80.358 314.014 80.757 314.079 80.969C314.143 81.182 314.412 81.601 314.676 81.902C314.941 82.203 315.311 82.809 315.499 83.248C315.688 83.688 316.033 84.28 316.266 84.565C317.004 85.466 317.486 86.22 317.983 87.25C318.249 87.801 318.632 88.401 318.834 88.584C319.036 88.767 319.354 89.213 319.539 89.576C319.724 89.939 320.11 90.592 320.396 91.028C321.509 92.723 322.151 93.784 322.564 94.613C322.8 95.088 323.069 95.523 323.16 95.579C323.439 95.751 324.941 98.068 325.299 98.878C325.484 99.296 325.786 99.719 325.971 99.818C326.156 99.917 326.388 100.242 326.487 100.54C326.586 100.839 326.967 101.533 327.333 102.083C327.699 102.633 327.999 103.151 327.999 103.234C328 103.317 328.177 103.617 328.393 103.901C328.61 104.185 329.014 104.867 329.292 105.417C329.57 105.967 329.963 106.567 330.166 106.75C330.37 106.933 330.714 107.434 330.932 107.863C331.149 108.292 331.407 108.693 331.506 108.754C331.604 108.814 331.857 109.251 332.068 109.724C332.279 110.196 332.617 110.731 332.82 110.91C333.022 111.09 333.341 111.594 333.529 112.03C334.115 113.392 334.613 113.351 334.917 111.917C335.001 111.518 334.954 111.562 334.681 112.137C334.275 112.993 334.177 112.957 333.604 111.748C333.363 111.239 333.056 110.78 332.921 110.728C332.786 110.677 332.452 110.161 332.178 109.581C331.904 109.002 331.601 108.479 331.504 108.419C331.407 108.359 331.148 107.959 330.93 107.53C330.712 107.101 330.348 106.577 330.121 106.366C329.894 106.155 329.572 105.667 329.405 105.283C329.238 104.898 328.947 104.362 328.759 104.093C328.392 103.566 327.664 102.314 326.863 100.833C326.59 100.329 326.174 99.737 325.938 99.517C325.703 99.297 325.427 98.869 325.327 98.564C325.124 97.95 323.855 95.98 323.244 95.333C323.028 95.104 322.728 94.617 322.578 94.25C322.427 93.883 322.058 93.208 321.757 92.75C321.2 91.902 320.6 90.915 319.81 89.546C319.567 89.126 319.244 88.713 319.091 88.627C318.937 88.542 318.554 87.934 318.239 87.277C317.65 86.05 317.194 85.327 316.404 84.366C316.155 84.063 315.745 83.379 315.492 82.844C315.24 82.31 314.949 81.822 314.847 81.758C314.744 81.695 314.464 81.255 314.224 80.78C313.985 80.305 313.611 79.705 313.394 79.446C313.177 79.186 313 78.866 313 78.733C313 78.601 312.709 78.175 312.353 77.788C311.997 77.4 311.566 76.814 311.394 76.484C310.707 75.159 310.056 74.099 309.543 73.469C309.246 73.104 308.849 72.457 308.66 72.03C308.472 71.603 308.179 71.103 308.01 70.919C307.841 70.734 307.471 70.12 307.188 69.554C306.906 68.988 306.596 68.476 306.501 68.417C306.405 68.358 306.149 67.959 305.932 67.53C305.714 67.101 305.378 66.607 305.185 66.433C304.992 66.259 304.645 65.734 304.414 65.266C303.976 64.383 303.147 63.112 302.446 62.249C302.222 61.974 301.924 61.475 301.785 61.14C301.645 60.806 301.261 60.132 300.932 59.643C300.603 59.154 300.333 58.688 300.333 58.608C300.333 58.527 300.08 58.114 299.771 57.689C299.462 57.264 299.154 56.74 299.087 56.523C299.021 56.307 298.708 55.844 298.392 55.494C298.076 55.145 297.646 54.534 297.437 54.138C296.61 52.571 296.098 51.731 295.72 51.32C295.502 51.083 295.083 50.437 294.787 49.884C294.06 48.524 292.829 46.667 292.654 46.667C292.375 46.667 291.336 47.703 291.443 47.876C291.569 48.08 291.624 96.479 291.5 98.037C291.372 99.646 291.302 99.666 285.917 99.666C281.89 99.665 281.545 99.642 281.042 99.335L280.5 99.005L280.505 96.044C280.518 88.416 280.328 10.478 280.292 8.455C280.261 6.74 280.297 6.224 280.435 6.413C280.537 6.553 280.859 6.667 281.151 6.667C281.575 6.667 281.74 6.772 281.966 7.19C282.122 7.477 282.504 8.054 282.815 8.472C283.126 8.89 283.516 9.537 283.681 9.91C284.033 10.706 285.278 12.636 285.735 13.092C285.909 13.267 286.193 13.727 286.365 14.116C286.537 14.504 287.189 15.593 287.815 16.536C288.441 17.479 289.086 18.512 289.249 18.833C289.412 19.154 289.761 19.691 290.024 20.026C290.287 20.361 290.596 20.85 290.71 21.114C290.961 21.696 291.729 22.932 292.452 23.921C292.747 24.324 293.176 25.026 293.407 25.482C293.638 25.937 293.904 26.357 293.998 26.416C294.093 26.474 294.476 27.061 294.849 27.719C295.223 28.378 295.691 29.163 295.889 29.465C296.088 29.767 296.644 30.629 297.126 31.382C297.608 32.134 298.155 32.929 298.342 33.147C298.528 33.365 298.793 33.814 298.932 34.145C299.07 34.475 299.328 34.901 299.507 35.09C299.685 35.28 300.059 35.881 300.338 36.426C300.83 37.386 300.98 37.629 302.115 39.3C302.408 39.731 302.875 40.509 303.153 41.03C303.432 41.55 303.738 42.024 303.833 42.083C303.929 42.143 304.229 42.63 304.5 43.167C304.771 43.703 305.071 44.191 305.166 44.25C305.262 44.309 305.518 44.708 305.737 45.137C305.955 45.566 306.325 46.137 306.558 46.407C306.791 46.676 307.117 47.16 307.282 47.482C307.793 48.476 309.18 50.732 309.496 51.083C309.661 51.267 309.959 51.717 310.158 52.083C310.698 53.077 311.586 54.497 312.138 55.25C312.407 55.617 312.68 56.09 312.745 56.303C312.81 56.515 313.072 56.927 313.328 57.219C313.584 57.511 314.196 58.437 314.688 59.277C315.181 60.117 315.716 61.017 315.879 61.277C316.041 61.537 316.431 62.163 316.745 62.667C317.059 63.171 317.537 63.883 317.808 64.25C318.079 64.617 318.412 65.189 318.55 65.521C318.687 65.854 318.883 66.178 318.985 66.241C319.088 66.304 319.329 66.67 319.521 67.053C319.713 67.436 320.051 67.943 320.272 68.179C320.492 68.415 320.89 69.128 321.155 69.763C321.638 70.919 321.909 71.183 322.854 71.417C323.686 71.623 323.667 72.233 323.667 45.179C323.667 18.055 323.626 19.503 324.407 18.961C324.504 18.894 326.768 18.837 329.438 18.836C334.804 18.833 334.506 18.772 334.928 19.957C335.061 20.329 335.155 20.448 335.158 20.25C335.162 20.067 334.99 19.627 334.776 19.273L334.386 18.63L329.427 18.626L324.468 18.623L324.026 19.065L323.583 19.508L323.5 45.079C323.445 61.889 323.359 70.707 323.249 70.818C322.758 71.309 321.714 70.675 321.344 69.66C321.149 69.123 320.747 68.384 320.453 68.016C320.158 67.648 319.63 66.876 319.281 66.299C318.931 65.722 318.406 64.882 318.114 64.433C317.822 63.984 317.358 63.265 317.083 62.836C316.808 62.406 316.371 61.724 316.111 61.319C315.852 60.914 315.226 59.871 314.72 59C314.215 58.129 313.667 57.267 313.503 57.083C313.339 56.9 313.051 56.445 312.864 56.072C312.677 55.699 312.408 55.298 312.267 55.181C312.125 55.063 311.83 54.581 311.611 54.108C311.391 53.636 310.977 52.958 310.689 52.602C310.402 52.246 310.167 51.878 310.167 51.784C310.167 51.691 309.96 51.348 309.708 51.022C309.456 50.696 308.786 49.639 308.219 48.673C307.651 47.707 306.954 46.579 306.669 46.167C305.818 44.933 305.101 43.81 304.79 43.22C304.629 42.915 304.179 42.185 303.79 41.599C303.401 41.012 302.783 40.033 302.417 39.423C302.05 38.813 301.514 37.99 301.225 37.595C300.937 37.199 300.544 36.52 300.352 36.086C300.16 35.652 299.777 35.04 299.501 34.726C299.226 34.412 299 34.051 299 33.924C299 33.796 298.794 33.449 298.542 33.152C298.29 32.855 297.896 32.292 297.667 31.901C296.569 30.03 295.813 28.84 295.661 28.746C295.569 28.69 295.297 28.255 295.057 27.78C294.817 27.305 294.406 26.656 294.143 26.337C293.881 26.018 293.667 25.677 293.667 25.579C293.667 25.403 292.151 22.981 291.531 22.167C291.356 21.938 291.043 21.412 290.834 21C290.625 20.587 290.274 20.034 290.053 19.769C289.832 19.505 289.494 18.982 289.303 18.608C289.112 18.233 288.46 17.174 287.855 16.255C287.249 15.336 286.584 14.246 286.377 13.833C286.171 13.421 285.741 12.746 285.422 12.333C285.104 11.921 284.689 11.382 284.501 11.136C284.314 10.89 284.046 10.365 283.907 9.969C283.767 9.574 283.447 8.987 283.194 8.667C282.941 8.346 282.526 7.722 282.271 7.281C282.016 6.84 281.682 6.436 281.529 6.382C281.375 6.328 281.006 6.104 280.708 5.884C280.223 5.524 280.166 5.514 280.161 5.783ZM42.917 11.382C42.169 11.806 41.945 12.187 41.497 13.799C41.326 14.414 40.958 15.329 40.679 15.833C40.401 16.337 40.172 16.862 40.17 17C40.167 17.431 41.312 15.042 41.59 14.039C42.026 12.469 42.167 12.212 42.856 11.734C43.65 11.184 43.761 11.261 44.335 12.75C44.547 13.3 44.809 13.862 44.918 14C45.238 14.406 46.662 17.171 47.086 18.209C47.301 18.737 47.634 19.368 47.825 19.611C48.016 19.854 48.289 20.454 48.432 20.945C48.575 21.436 48.862 22.043 49.071 22.294C49.28 22.545 49.617 23.2 49.821 23.75C50.024 24.3 50.326 24.9 50.491 25.083C50.656 25.267 50.957 25.867 51.158 26.417C51.36 26.967 51.695 27.642 51.902 27.917C52.11 28.192 52.418 28.792 52.588 29.25C52.759 29.708 53.071 30.315 53.282 30.599C53.494 30.883 53.817 31.552 54.001 32.086C54.185 32.62 54.555 33.4 54.823 33.82C55.092 34.24 55.385 34.771 55.473 35C55.562 35.229 56.08 36.253 56.625 37.276C57.17 38.299 57.783 39.549 57.988 40.054C58.193 40.559 58.54 41.215 58.759 41.512C58.978 41.809 59.28 42.434 59.43 42.901C59.581 43.368 59.909 44.012 60.159 44.333C60.409 44.654 60.709 45.217 60.825 45.583C60.94 45.95 61.216 46.531 61.436 46.875C61.657 47.219 61.999 47.931 62.196 48.458C62.393 48.985 62.804 49.781 63.11 50.227C63.416 50.673 63.667 51.123 63.667 51.227C63.667 51.392 64.877 53.982 65.625 55.417C68.161 60.283 69.333 62.613 69.333 62.784C69.333 62.867 69.55 63.23 69.816 63.592C70.081 63.954 70.417 64.654 70.563 65.148C70.71 65.642 71.003 66.28 71.216 66.565C71.428 66.85 71.731 67.427 71.887 67.847C72.044 68.266 72.356 68.859 72.581 69.164C72.806 69.468 73.145 70.185 73.335 70.756C73.525 71.327 73.82 71.921 73.991 72.075C74.162 72.23 74.472 72.82 74.682 73.386C74.891 73.953 75.234 74.679 75.443 75.001C75.652 75.322 76.021 76.072 76.262 76.667C76.503 77.263 76.778 77.846 76.874 77.963C76.97 78.08 77.859 79.788 78.849 81.759C79.839 83.729 80.794 85.546 80.97 85.796C81.146 86.046 81.465 86.737 81.679 87.333C81.892 87.929 82.312 88.802 82.611 89.274C83.195 90.195 84.003 91.887 84.524 93.276C84.701 93.749 84.951 94.224 85.08 94.331C86.403 95.428 85.771 97.312 83.832 98.053C83.145 98.316 82.471 98.629 82.333 98.75C82.196 98.87 81.558 99.226 80.917 99.541C80.275 99.855 79.45 100.27 79.083 100.461C78.717 100.653 78.037 100.992 77.573 101.214L76.729 101.618L76.313 101.268C75.76 100.801 74.906 99.68 74.641 99.073C74.523 98.804 74.261 98.321 74.058 98C73.855 97.679 73.56 97.079 73.402 96.667C73.245 96.254 72.955 95.692 72.757 95.417C72.559 95.142 72.225 94.504 72.014 94C71.804 93.496 71.495 92.858 71.328 92.583C71.162 92.308 70.867 91.659 70.673 91.14C70.479 90.621 70.199 90.096 70.05 89.974C69.901 89.851 69.598 89.341 69.377 88.841C69.155 88.341 68.84 87.741 68.677 87.507C68.514 87.274 68.214 86.633 68.011 86.083C67.808 85.533 67.455 84.839 67.228 84.54C67.001 84.242 66.668 83.57 66.488 83.048C66.308 82.526 66.014 81.942 65.833 81.75C65.653 81.558 65.356 80.968 65.174 80.439C64.992 79.909 64.672 79.273 64.463 79.024C64.253 78.775 63.868 78.012 63.606 77.328C63.344 76.643 63.068 75.922 62.993 75.725C62.598 74.695 60.772 75.063 58.652 76.601C58.232 76.906 57.557 77.306 57.152 77.49C56.317 77.87 54.707 78.861 53.817 79.542C53.488 79.794 53.143 80 53.051 80C52.959 80 52.553 80.24 52.15 80.532C51.151 81.258 49.783 82.065 48.583 82.638C48.033 82.901 47.472 83.249 47.337 83.413C47.201 83.576 46.554 83.954 45.9 84.252C45.246 84.55 44.658 84.88 44.593 84.984C44.529 85.089 44.05 85.402 43.53 85.68C41.724 86.644 40.254 87.516 39.92 87.822C39.735 87.991 39.246 88.298 38.833 88.505C38.421 88.712 37.858 89.049 37.583 89.254C37.308 89.459 36.708 89.81 36.25 90.035C34.877 90.708 33.775 91.362 33.333 91.767C33.104 91.977 32.617 92.273 32.25 92.424C31.883 92.576 31.33 92.891 31.021 93.124C30.711 93.358 30.036 93.765 29.521 94.03C29.005 94.294 28.021 94.881 27.333 95.333C26.646 95.786 25.671 96.35 25.167 96.587C24.662 96.824 24.063 97.197 23.833 97.415C23.604 97.633 23.069 97.961 22.643 98.142C22.218 98.324 21.823 98.549 21.764 98.643C21.665 98.804 19.932 99.842 18.525 100.583C18.177 100.767 17.6 101.16 17.243 101.457C16.886 101.754 16.236 102.116 15.799 102.261C15.362 102.407 14.962 102.593 14.911 102.675C14.86 102.758 14.316 103.103 13.701 103.443C13.086 103.782 12.371 104.234 12.112 104.447C11.853 104.659 11.539 104.833 11.414 104.833C11.289 104.833 10.713 105.193 10.135 105.633C9.216 106.331 7.574 107.146 7.429 106.976C6.862 106.312 6.895 105.667 7.566 104.265C7.878 103.615 8.334 102.483 8.581 101.75C9.797 98.133 10.182 97.092 10.391 96.848C10.678 96.516 11 95.572 11 95.066C11 94.855 11.286 94.135 11.635 93.466C11.985 92.797 12.364 91.823 12.479 91.3C12.593 90.778 12.863 90.091 13.077 89.774C13.292 89.458 13.624 88.581 13.815 87.826C14.006 87.071 14.342 86.145 14.561 85.768C14.78 85.392 15.011 84.821 15.075 84.5C15.277 83.477 15.71 82.263 16.027 81.833C16.196 81.604 16.475 80.929 16.649 80.333C16.822 79.737 17.159 78.837 17.397 78.333C17.635 77.829 17.831 77.257 17.832 77.062C17.833 76.867 18.096 76.192 18.417 75.562C18.738 74.932 19.151 73.822 19.335 73.095C19.519 72.368 19.848 71.468 20.066 71.095C20.284 70.722 20.595 69.929 20.758 69.333C20.92 68.737 21.255 67.837 21.502 67.333C21.748 66.829 22.042 66.042 22.154 65.583C22.266 65.125 22.57 64.375 22.829 63.917C23.088 63.458 23.389 62.633 23.498 62.083C23.607 61.533 23.914 60.691 24.181 60.211C24.448 59.732 24.823 58.757 25.015 58.045C25.208 57.333 25.539 56.447 25.752 56.077C25.965 55.707 26.264 54.924 26.416 54.337C26.568 53.75 26.828 53.003 26.994 52.677C27.16 52.35 27.463 51.521 27.667 50.833C27.871 50.146 28.183 49.298 28.361 48.948C28.538 48.599 28.838 47.811 29.028 47.198C29.217 46.585 29.542 45.746 29.75 45.333C29.958 44.921 30.295 44.021 30.497 43.333C30.7 42.646 31.002 41.858 31.169 41.583C31.336 41.308 31.597 40.596 31.75 40C31.902 39.404 32.237 38.542 32.493 38.083C32.748 37.625 33.123 36.688 33.326 36C33.528 35.313 33.803 34.579 33.937 34.371C34.07 34.162 34.359 33.375 34.578 32.621C34.797 31.867 35.161 30.912 35.388 30.5C35.614 30.087 35.885 29.339 35.99 28.837C36.094 28.335 36.378 27.586 36.62 27.172C36.862 26.759 37.229 25.894 37.435 25.252C37.64 24.609 38 23.633 38.234 23.083C38.467 22.533 38.657 21.933 38.655 21.75C38.65 21.357 38.195 22.445 37.412 24.717C37.103 25.616 36.7 26.593 36.518 26.888C36.336 27.183 36.028 28.001 35.835 28.706C35.641 29.412 35.305 30.31 35.087 30.703C34.87 31.095 34.568 31.899 34.417 32.488C34.266 33.077 33.972 33.902 33.764 34.321C33.556 34.74 33.287 35.458 33.166 35.917C33.046 36.375 32.706 37.237 32.412 37.833C32.117 38.429 31.748 39.363 31.59 39.91C31.433 40.456 31.134 41.243 30.927 41.66C30.719 42.076 30.46 42.782 30.351 43.229C30.241 43.675 29.963 44.413 29.733 44.868C29.502 45.322 29.101 46.307 28.84 47.056C28.58 47.804 28.058 49.311 27.68 50.404C27.302 51.497 26.924 52.474 26.841 52.574C26.757 52.675 26.538 53.303 26.353 53.971C26.168 54.638 25.869 55.424 25.689 55.717C25.509 56.01 25.174 56.902 24.944 57.698C24.714 58.495 24.337 59.47 24.107 59.865C23.877 60.26 23.561 61.108 23.406 61.75C23.251 62.392 22.947 63.243 22.731 63.643C22.514 64.042 22.182 64.888 21.993 65.523C21.804 66.157 21.51 66.918 21.339 67.213C21.169 67.508 20.872 68.265 20.681 68.893C20.489 69.522 20.118 70.497 19.855 71.06C19.592 71.623 19.255 72.585 19.106 73.197C18.957 73.81 18.682 74.57 18.495 74.887C18.309 75.204 17.939 76.09 17.673 76.856C17.408 77.623 16.962 78.909 16.682 79.715C16.402 80.521 15.989 81.496 15.764 81.882C15.539 82.268 15.226 83.108 15.069 83.75C14.912 84.392 14.612 85.217 14.403 85.583C14.193 85.95 13.894 86.775 13.738 87.417C13.583 88.058 13.246 88.958 12.99 89.417C12.734 89.875 12.408 90.756 12.265 91.375C12.122 91.994 11.818 92.781 11.591 93.126C11.363 93.47 11.033 94.314 10.858 95.001C10.683 95.688 10.35 96.587 10.119 97C9.889 97.412 9.647 98.013 9.583 98.333C9.52 98.654 9.217 99.479 8.91 100.167C8.604 100.854 8.277 101.754 8.185 102.167C8.093 102.58 7.713 103.566 7.341 104.36C6.969 105.153 6.697 105.903 6.735 106.026C6.774 106.149 6.849 106.451 6.903 106.697C7.104 107.619 8.124 107.323 10.615 105.621C12.601 104.264 15.267 102.681 16.393 102.189C16.839 101.995 17.452 101.617 17.757 101.349C18.062 101.082 18.483 100.808 18.693 100.742C19.051 100.628 19.448 100.387 21.894 98.801C22.432 98.452 22.95 98.167 23.045 98.167C23.141 98.167 23.601 97.875 24.068 97.519C24.535 97.163 25.104 96.818 25.333 96.752C25.725 96.639 26.049 96.445 28.333 94.962C28.837 94.635 29.662 94.161 30.167 93.91C30.671 93.658 31.315 93.276 31.599 93.06C31.883 92.844 32.194 92.667 32.291 92.667C32.387 92.667 32.848 92.385 33.314 92.042C33.78 91.698 34.77 91.079 35.514 90.667C36.257 90.254 37.252 89.665 37.725 89.357C38.197 89.05 38.921 88.614 39.333 88.389C39.746 88.165 40.496 87.727 41 87.417C41.504 87.107 42.281 86.643 42.725 86.385C43.17 86.127 43.92 85.663 44.392 85.352C44.864 85.042 45.629 84.618 46.093 84.41C46.556 84.203 47.159 83.845 47.432 83.615C47.705 83.385 48.273 83.022 48.695 82.807C49.621 82.336 50.793 81.647 51.917 80.913C52.375 80.614 53.012 80.24 53.333 80.082C53.654 79.924 54.067 79.666 54.25 79.51C54.741 79.091 57.028 77.711 57.58 77.501C57.842 77.402 58.405 77.064 58.83 76.752C61.532 74.769 62.482 74.999 63.629 77.917C63.773 78.283 64.059 78.788 64.265 79.037C64.47 79.287 64.727 79.775 64.836 80.121C64.946 80.467 65.319 81.237 65.667 81.833C66.014 82.429 66.392 83.217 66.507 83.583C66.621 83.95 66.886 84.455 67.095 84.706C67.303 84.956 67.624 85.556 67.806 86.039C68.204 87.09 69.567 89.776 69.892 90.15C70.02 90.297 70.547 91.317 71.064 92.417C71.581 93.517 72.151 94.679 72.33 95C72.509 95.321 72.849 95.996 73.085 96.5C73.321 97.004 73.62 97.604 73.749 97.833C73.878 98.063 74.185 98.625 74.431 99.083C76.044 102.094 76.351 102.184 79.417 100.541C79.692 100.393 80.442 99.998 81.083 99.663C81.725 99.328 82.55 98.892 82.917 98.694C83.283 98.497 83.987 98.171 84.481 97.971C86.058 97.33 86.375 95.727 85.225 94.207C84.999 93.909 84.679 93.269 84.513 92.787C84.16 91.761 83.526 90.466 82.726 89.137C82.413 88.616 82.012 87.77 81.836 87.257C81.659 86.744 81.249 85.894 80.924 85.367C80.599 84.841 80.333 84.356 80.333 84.291C80.333 84.225 80.114 83.814 79.846 83.378C79.578 82.941 79.2 82.159 79.006 81.64C78.812 81.121 78.552 80.612 78.427 80.509C78.302 80.405 78.03 79.892 77.822 79.368C77.613 78.845 77.305 78.217 77.137 77.972C76.969 77.728 76.618 77.004 76.357 76.364C76.096 75.723 75.726 75 75.535 74.757C75.344 74.513 75.062 73.925 74.908 73.449C74.755 72.973 74.425 72.321 74.175 72C73.925 71.679 73.586 71.004 73.422 70.5C73.259 69.996 72.95 69.349 72.736 69.062C72.522 68.775 72.205 68.165 72.031 67.707C71.856 67.248 71.522 66.62 71.288 66.311C71.053 66.003 70.81 65.471 70.746 65.13C70.683 64.789 70.412 64.163 70.143 63.739C69.874 63.315 69.129 61.907 68.487 60.609C67.845 59.312 66.94 57.538 66.477 56.667C66.014 55.796 65.454 54.637 65.233 54.091C65.012 53.545 64.652 52.832 64.434 52.508C64.215 52.183 63.942 51.617 63.828 51.25C63.713 50.883 63.409 50.283 63.151 49.917C62.894 49.55 62.519 48.8 62.318 48.25C62.117 47.7 61.817 47.056 61.652 46.82C61.486 46.583 61.191 45.983 60.997 45.486C60.802 44.99 60.466 44.396 60.249 44.167C60.033 43.938 59.767 43.392 59.657 42.955C59.548 42.517 59.26 41.88 59.017 41.538C58.774 41.196 58.428 40.579 58.249 40.167C58.069 39.754 57.516 38.629 57.02 37.667C56.523 36.704 55.857 35.392 55.541 34.751C55.224 34.11 54.833 33.397 54.672 33.168C54.512 32.938 54.257 32.373 54.106 31.912C53.955 31.451 53.645 30.8 53.418 30.466C53.19 30.131 52.852 29.45 52.665 28.951C52.479 28.453 52.181 27.914 52.004 27.753C51.826 27.593 51.523 26.987 51.33 26.406C51.137 25.826 50.828 25.159 50.643 24.925C50.459 24.69 50.126 24.035 49.904 23.469C49.683 22.902 49.353 22.282 49.173 22.09C48.993 21.899 48.691 21.24 48.502 20.628C48.312 20.015 48.082 19.467 47.989 19.41C47.896 19.353 47.291 18.206 46.643 16.861C45.996 15.517 45.358 14.295 45.227 14.146C45.095 13.998 44.783 13.392 44.533 12.8C44.284 12.209 43.968 11.563 43.831 11.364L43.583 11.003L42.917 11.382ZM381.687 17.064C380.888 17.799 379.223 19.462 374.456 24.285C373.341 25.413 369.134 29.63 368.921 29.833C368.776 29.971 367.538 31.208 366.169 32.583C364.799 33.958 363.545 35.217 363.381 35.381C363.217 35.545 359.804 38.928 355.795 42.9C347.189 51.428 347.017 51.662 348.7 52.514C349.094 52.714 349.698 53.13 350.042 53.439C350.386 53.747 350.769 54 350.894 54C351.018 54 351.392 54.256 351.724 54.569C352.056 54.883 352.61 55.229 352.956 55.339C353.301 55.449 353.808 55.75 354.083 56.007C354.628 56.516 355.81 57.332 357.199 58.157C357.685 58.446 358.585 59.073 359.198 59.55C359.811 60.026 360.673 60.623 361.114 60.875C362.047 61.407 363.359 62.298 364.108 62.908C364.396 63.144 364.893 63.445 365.213 63.578C365.532 63.712 366.008 63.997 366.272 64.212C366.535 64.428 367.093 64.801 367.513 65.042C367.933 65.283 368.383 65.61 368.513 65.767C368.643 65.924 369.091 66.211 369.508 66.405C371.705 67.424 372.854 69.289 371.802 70.127C371.425 70.427 370.836 71.025 367.577 74.417C365.71 76.359 362.871 79.255 354.583 87.674C348.271 94.086 348.22 94.163 349.445 95.348C349.796 95.688 350.218 96.142 350.382 96.358C350.674 96.741 350.675 96.738 350.399 96.25C350.244 95.975 349.867 95.525 349.56 95.25C349.023 94.768 349.009 94.726 349.187 94.084C349.457 93.109 349.806 92.697 352.937 89.654C353.934 88.684 356.512 86.068 358.667 83.839C363.39 78.952 369.11 73.091 370.996 71.204C372.863 69.336 372.993 68.687 371.687 67.749C371.217 67.411 370.833 67.069 370.833 66.987C370.833 66.905 370.398 66.618 369.865 66.349C369.332 66.08 368.794 65.736 368.668 65.585C368.542 65.433 368.134 65.154 367.761 64.965C367.388 64.776 366.837 64.407 366.535 64.144C366.234 63.881 365.719 63.554 365.391 63.417C365.064 63.28 364.539 62.943 364.225 62.667C363.912 62.392 363.593 62.167 363.517 62.167C363.441 62.167 362.871 61.792 362.25 61.333C361.629 60.875 361.026 60.5 360.91 60.5C360.71 60.5 359.998 59.981 358.667 58.866C358.346 58.597 357.746 58.207 357.333 57.999C356.921 57.791 356.373 57.446 356.117 57.231C355.86 57.017 355.389 56.717 355.07 56.566C354.75 56.414 354.41 56.144 354.315 55.966C354.22 55.787 353.667 55.429 353.087 55.168C352.507 54.908 351.969 54.585 351.891 54.449C351.814 54.314 351.398 54.039 350.969 53.838C350.539 53.637 350.08 53.309 349.948 53.108C349.817 52.908 349.323 52.563 348.851 52.342C348.379 52.12 348.027 51.859 348.069 51.761C348.111 51.663 348.236 51.306 348.346 50.967C348.497 50.506 349.621 49.281 352.815 46.097C355.163 43.757 357.158 41.766 357.25 41.671C357.342 41.577 362.254 36.663 368.167 30.753C374.079 24.842 379.107 19.799 379.34 19.545C380.396 18.394 382.521 16.5 382.756 16.5C383.374 16.5 384.241 17.196 386.721 19.686C388.171 21.142 389.417 22.333 389.489 22.333C389.561 22.333 389.895 22.749 390.233 23.257C391.282 24.838 391.617 24.375 383.597 32.428C368.293 47.793 367.17 48.973 367.281 49.56C367.444 50.42 367.643 50.659 368.551 51.087C369.027 51.312 369.979 51.952 370.667 52.509C371.354 53.067 372.222 53.666 372.595 53.84C372.969 54.014 373.549 54.365 373.884 54.62C374.986 55.457 377.403 57.08 379.164 58.167C379.685 58.487 380.329 58.923 380.597 59.134C381.312 59.699 382.168 60.275 382.86 60.656C383.195 60.84 383.81 61.286 384.226 61.646C384.641 62.005 385.531 62.603 386.203 62.974C386.875 63.345 387.611 63.847 387.837 64.09C388.064 64.334 388.55 64.685 388.917 64.872C389.81 65.326 391.667 66.858 391.667 67.14C391.667 67.494 357.573 101.471 356.967 101.721L356.352 101.975L353.665 99.321C352.187 97.861 350.937 96.667 350.888 96.667C350.817 96.667 352.4 98.339 353.274 99.185C353.494 99.399 354.563 100.466 354.774 100.683C356.138 102.089 356.489 102.267 357.185 101.907C357.826 101.576 391.624 67.729 391.769 67.274C391.901 66.856 390.181 65.218 389 64.638C388.587 64.435 388.063 64.072 387.833 63.831C387.604 63.59 386.892 63.104 386.25 62.751C385.608 62.397 384.772 61.827 384.392 61.483C384.011 61.139 383.411 60.701 383.058 60.511C382.705 60.321 382.004 59.87 381.5 59.508C380.996 59.147 380.081 58.546 379.467 58.173C378.852 57.8 378.303 57.42 378.246 57.328C378.19 57.236 377.792 56.973 377.363 56.744C376.934 56.515 376.021 55.917 375.333 55.415C374.646 54.912 373.722 54.295 373.279 54.042C372.837 53.79 371.753 53.039 370.87 52.373C369.987 51.708 368.944 51.008 368.552 50.818C367.966 50.534 367.807 50.354 367.659 49.804L367.479 49.136L368.446 48.11C369.829 46.641 375.663 40.734 383.75 32.613C391.688 24.642 391.519 24.865 390.611 23.5C390.097 22.727 384.366 16.952 383.826 16.663C382.788 16.107 382.714 16.121 381.687 17.064ZM259.5 17.591C258.813 17.995 257.987 18.442 257.667 18.584C256.776 18.977 252.971 20.839 252.5 21.112C252.271 21.244 251.671 21.536 251.167 21.759C250.662 21.982 250.025 22.288 249.75 22.439C248.581 23.082 248.373 23.19 247.5 23.594C246.619 24.002 244.61 25.046 243.917 25.457C243.733 25.565 243.021 25.923 242.333 26.251C240.606 27.076 239.872 27.499 240.167 27.5C240.304 27.5 240.904 27.2 241.5 26.833C242.096 26.467 242.667 26.167 242.768 26.167C242.962 26.167 245.994 24.643 247 24.04C247.321 23.848 247.921 23.56 248.333 23.401C248.746 23.242 249.291 22.968 249.545 22.792C249.799 22.616 250.455 22.297 251.003 22.082C251.55 21.868 252.193 21.539 252.43 21.353C252.667 21.166 253.286 20.855 253.805 20.66C254.325 20.466 255.162 20.06 255.667 19.757C256.171 19.455 256.883 19.113 257.25 18.997C257.617 18.88 258.217 18.581 258.583 18.332C261.208 16.546 262.15 16.549 263.014 18.342C263.299 18.933 263.632 19.529 263.753 19.667C263.875 19.804 264.141 20.367 264.344 20.917C264.547 21.467 264.854 22.117 265.026 22.363C265.198 22.608 265.486 23.133 265.666 23.53C265.846 23.926 265.992 24.137 265.992 24C265.991 23.863 265.805 23.412 265.578 23C265.352 22.587 264.979 21.837 264.751 21.333C264.523 20.829 264.188 20.154 264.007 19.833C263.826 19.512 263.481 18.837 263.241 18.333C262.368 16.5 261.609 16.35 259.5 17.591ZM39.926 17.928C39.863 18.263 39.594 18.96 39.328 19.477C39.062 19.994 38.804 20.642 38.753 20.917C38.678 21.33 38.705 21.305 38.912 20.774C39.049 20.42 39.307 19.895 39.485 19.607C39.829 19.049 40.266 17.544 40.125 17.403C40.078 17.356 39.989 17.592 39.926 17.928ZM86.735 18.466C85.931 18.581 85.833 19.264 85.833 24.746V29.815L86.224 30.269L86.615 30.724L94.183 30.702C102.846 30.678 102.954 30.69 103.275 31.754C103.427 32.259 103.477 40.338 103.487 65.633C103.501 102.185 103.424 99.6 104.52 99.982C105.213 100.223 114.059 100.236 114.507 99.996C115.279 99.583 115.245 101.002 115.333 65.5C115.413 33.295 115.429 31.898 115.722 31.467C116.252 30.686 116.589 30.657 124.74 30.7L132.371 30.739L132.686 30.351C132.971 29.999 132.996 29.689 132.962 27.023L132.925 24.083L132.875 27.019C132.809 30.965 133.878 30.522 124.45 30.505C115.677 30.489 115.657 30.491 115.333 31.656C115.227 32.039 115.168 44.118 115.168 65.616L115.167 98.981L114.771 99.441L114.375 99.901L109.398 99.88L104.421 99.859L104.044 99.42L103.667 98.981L103.665 65.699C103.664 47.394 103.616 32.13 103.558 31.78C103.356 30.558 103.604 30.594 94.536 30.5C86.798 30.42 86.463 30.404 86.236 30.093C85.929 29.672 85.886 19.932 86.189 19.267C86.497 18.592 84.815 18.616 127.225 18.696L132.367 18.706L132.68 19.395C132.852 19.773 132.994 19.982 132.996 19.859C133.002 19.492 132.478 18.501 132.273 18.491C131.422 18.453 87.003 18.428 86.735 18.466ZM146.709 18.501C145.767 18.715 145.188 19.661 145.378 20.674C145.437 20.99 145.46 20.951 145.478 20.5C145.515 19.572 146.029 18.885 146.779 18.762C148.388 18.497 155.733 18.594 156.29 18.889C157.471 19.512 157.397 18.244 157.289 35.969C157.216 48.03 157.24 51.981 157.388 52.179C158.083 53.113 157.198 53.066 173.226 53.021C186.844 52.982 187.953 52.958 188.416 52.689C189.367 52.136 189.328 52.864 189.331 35.733L189.333 19.883L189.715 19.316L190.097 18.75L193.84 18.719C195.899 18.702 198.141 18.664 198.823 18.636L200.063 18.583L200.448 19.15L200.833 19.716V59.349V98.981L200.455 99.422L200.076 99.862L195.33 99.886C192.719 99.9 190.415 99.851 190.208 99.778C189.396 99.489 189.417 99.921 189.417 83.083C189.417 65.712 189.48 66.722 188.338 66.019L187.526 65.519L173.305 65.554C157.759 65.592 158.1 65.571 157.48 66.552C157.147 67.079 157.145 67.226 157.258 82.85C157.343 94.617 157.323 98.707 157.18 98.975C156.722 99.832 156.507 99.867 151.628 99.88C147.001 99.892 146.713 99.859 145.992 99.234C145.761 99.033 145.739 95.262 145.781 62.463C145.806 42.363 145.764 24.829 145.688 23.5C145.607 22.087 145.54 37.248 145.525 60.005C145.497 103.235 145.393 99.408 146.615 99.919C147.485 100.283 155.794 100.282 156.498 99.918C157.578 99.359 157.51 100.529 157.493 82.931L157.477 66.946L157.992 66.431L158.506 65.917L173.046 65.87L187.585 65.823L188.371 66.321L189.157 66.82L189.204 82.952C189.252 99.681 189.244 99.526 190.003 99.918C190.498 100.174 197.378 100.278 199.392 100.059C201.19 99.864 200.999 104.711 200.997 59.333L200.995 19.75L200.617 19.083L200.239 18.417L195.328 18.411C190.084 18.404 190.046 18.409 189.565 19.118C189.263 19.564 189.247 20.24 189.167 35.612L189.083 51.64L188.692 52.057C187.94 52.857 188.236 52.843 172.877 52.795L158.341 52.75L157.898 52.308L157.456 51.865L157.487 35.859C157.522 18.01 157.594 19.107 156.371 18.618C155.677 18.34 147.835 18.246 146.709 18.501ZM132.896 22.167C132.896 23.221 132.923 23.652 132.956 23.125C132.99 22.598 132.99 21.735 132.956 21.208C132.923 20.681 132.896 21.112 132.896 22.167ZM334.915 65.667C334.915 90.371 334.935 100.477 334.958 88.125C334.982 75.773 334.982 55.56 334.958 43.208C334.935 30.856 334.915 40.962 334.915 65.667ZM266 24.422C266 24.477 266.181 24.761 266.402 25.053C267.366 26.325 267.114 27.402 265.75 27.838C265.383 27.955 264.858 28.221 264.583 28.429C264.308 28.637 263.682 28.965 263.192 29.158C262.702 29.35 262.059 29.692 261.764 29.917C261.469 30.143 260.909 30.439 260.519 30.577C260.13 30.714 259.591 30.983 259.321 31.175C259.052 31.367 258.366 31.713 257.797 31.944C257.228 32.176 256.586 32.503 256.371 32.673C256.155 32.842 255.703 33.07 255.365 33.178C255.027 33.286 254.6 33.503 254.417 33.66C254.233 33.817 253.671 34.117 253.167 34.327C252.662 34.536 252.056 34.845 251.818 35.013C251.581 35.181 250.977 35.471 250.476 35.659C249.975 35.846 249.314 36.185 249.007 36.411C248.7 36.638 247.985 36.978 247.417 37.167C246.849 37.356 246.129 37.702 245.817 37.936C245.505 38.171 244.84 38.546 244.339 38.771C243.838 38.996 243.313 39.28 243.172 39.402C243.032 39.525 242.639 39.714 242.3 39.822C241.961 39.931 241.411 40.205 241.078 40.431C240.745 40.657 240.016 41.027 239.458 41.254C237.854 41.906 237.392 43.061 238.443 43.794C238.612 43.911 239.2 44.334 239.75 44.733C240.3 45.131 241.05 45.617 241.417 45.813C241.783 46.008 242.271 46.309 242.5 46.481C244.34 47.861 246.521 49.341 247.023 49.549C247.357 49.688 247.919 50.061 248.273 50.378C248.627 50.695 249.179 51.086 249.5 51.247C249.821 51.408 250.196 51.636 250.333 51.753C250.471 51.87 251.033 52.205 251.583 52.497C252.133 52.789 252.696 53.172 252.833 53.346C253.148 53.747 254.565 54.74 255.333 55.099C255.654 55.249 256.185 55.607 256.512 55.894C257.08 56.392 257.856 56.91 259.416 57.833C260.559 58.51 260.663 58.637 260.556 59.223C260.413 60.004 260.044 60.499 259.403 60.766C258.711 61.056 256.482 62.537 256.166 62.918C256.04 63.069 255.582 63.373 255.147 63.593C254.713 63.813 254.309 64.071 254.25 64.166C254.192 64.261 253.895 64.442 253.59 64.57C253.286 64.697 252.747 65.061 252.393 65.378C252.04 65.695 251.487 66.086 251.167 66.247C250.846 66.407 250.433 66.669 250.25 66.827C250.067 66.985 249.448 67.394 248.875 67.736C248.302 68.078 247.833 68.417 247.833 68.489C247.833 68.561 247.402 68.862 246.875 69.156C245.932 69.684 244.778 70.474 243.634 71.375C243.314 71.627 242.971 71.833 242.872 71.833C242.773 71.833 242.45 72.04 242.153 72.292C241.857 72.544 241.187 73.012 240.665 73.333C237.693 75.16 237.586 75.265 237.908 76.037C238.231 76.81 240.689 78.32 242.709 78.986C243.038 79.095 243.391 79.285 243.493 79.408C243.596 79.532 244.108 79.802 244.632 80.009C245.155 80.216 245.815 80.555 246.097 80.763C246.38 80.971 247.073 81.329 247.638 81.559C248.203 81.788 248.871 82.119 249.124 82.294C249.377 82.468 249.921 82.741 250.333 82.9C250.746 83.059 251.364 83.372 251.707 83.596C252.05 83.82 252.76 84.193 253.285 84.425C253.809 84.657 254.354 84.95 254.494 85.077C254.635 85.203 255.269 85.502 255.904 85.74C256.538 85.978 257.141 86.243 257.245 86.329C257.348 86.414 258.629 87.089 260.091 87.828C267.849 91.749 267.686 91.624 266.692 92.837C266.43 93.156 266.122 93.705 266.007 94.058C265.777 94.759 264.286 97.735 263.698 98.667C263.495 98.987 263.248 99.55 263.149 99.917C263.05 100.283 262.828 100.815 262.654 101.098L262.339 101.613L260.856 101.247C259.841 100.997 259.17 100.722 258.728 100.376C258.374 100.098 257.694 99.745 257.218 99.592C256.742 99.438 256.16 99.162 255.925 98.977C255.691 98.792 255.034 98.459 254.465 98.236C253.897 98.014 253.157 97.641 252.82 97.408C252.484 97.175 251.822 96.837 251.349 96.657C250.876 96.478 250.193 96.144 249.831 95.915C249.469 95.687 249.122 95.5 249.059 95.5C248.996 95.5 247.964 94.999 246.764 94.386C245.565 93.774 244.208 93.098 243.75 92.885C243.292 92.672 242.579 92.308 242.167 92.077C241.754 91.846 241.117 91.529 240.75 91.373C240.383 91.217 239.221 90.647 238.167 90.106C237.112 89.565 235.2 88.603 233.917 87.969C232.633 87.335 231.321 86.667 231 86.485C230.679 86.303 230.079 86.005 229.667 85.823C229.254 85.642 228.654 85.341 228.333 85.155C228.012 84.969 227.45 84.691 227.083 84.538C226.717 84.384 225.592 83.821 224.583 83.287C223.575 82.753 222.338 82.128 221.833 81.898C221.329 81.668 219.679 80.877 218.167 80.139C216.654 79.402 215.156 78.675 214.838 78.524C213.622 77.948 213.773 76.586 215.129 75.901C215.931 75.495 219.292 73.244 219.833 72.75C220.063 72.54 220.625 72.169 221.083 71.925C222.35 71.25 223.676 70.418 224.417 69.834C224.783 69.545 225.421 69.088 225.833 68.818C226.246 68.548 227.033 67.993 227.583 67.585C228.133 67.177 228.883 66.68 229.248 66.481C229.614 66.282 230.252 65.839 230.665 65.496C231.078 65.154 231.604 64.778 231.833 64.661C232.063 64.545 232.438 64.307 232.667 64.133C232.896 63.959 233.683 63.438 234.417 62.974C235.15 62.511 235.957 61.938 236.209 61.701C236.461 61.464 237.023 61.078 237.457 60.843C238.969 60.026 239.154 58.808 237.866 58.158C237.38 57.913 236.78 57.524 236.533 57.295C235.991 56.792 234.38 55.722 233.398 55.214C233.006 55.011 232.603 54.693 232.503 54.506C232.404 54.32 232.006 54.009 231.619 53.815C231.233 53.621 230.766 53.325 230.581 53.156C230.397 52.987 229.9 52.697 229.478 52.51C229.056 52.323 228.615 52.056 228.499 51.915C228.165 51.514 226.153 50.146 225.406 49.813C225.034 49.648 224.587 49.354 224.412 49.162C224.021 48.729 222.177 47.502 221.167 47.002C220.754 46.798 220.192 46.42 219.917 46.163C219.642 45.905 218.779 45.318 218 44.857C217.221 44.396 216.168 43.673 215.661 43.25C215.154 42.827 214.657 42.429 214.558 42.365C214.043 42.035 213.618 40.781 213.94 40.538C214.271 40.288 216.645 39.148 217.75 38.708C218.117 38.562 218.717 38.246 219.083 38.004C219.45 37.763 220.237 37.358 220.833 37.103C221.429 36.848 222.536 36.327 223.293 35.945C225.212 34.976 229.814 32.612 230.417 32.286C230.692 32.138 231.742 31.632 232.75 31.163C233.758 30.694 234.846 30.163 235.167 29.982C235.705 29.679 236.032 29.519 237.667 28.759C238.66 28.298 239.948 27.474 239.5 27.587C239.271 27.645 238.783 27.895 238.417 28.144C238.05 28.392 237.375 28.734 236.917 28.905C236.458 29.076 235.877 29.361 235.624 29.537C235.371 29.713 234.696 30.048 234.124 30.28C233.552 30.513 232.88 30.848 232.632 31.025C232.383 31.202 231.761 31.491 231.25 31.667C230.739 31.843 230.117 32.131 229.869 32.307C229.62 32.483 228.929 32.861 228.333 33.147C227.025 33.774 225.788 34.397 225 34.827C224.414 35.146 222.019 36.341 220 37.321C219.404 37.61 218.579 38.032 218.167 38.258C217.754 38.484 216.629 39.031 215.667 39.474C213.172 40.621 212.977 41.062 214.386 42.38C214.769 42.739 215.308 43.241 215.583 43.497C215.858 43.752 216.458 44.169 216.917 44.422C218.006 45.025 219.092 45.761 219.905 46.447C220.265 46.751 220.651 47 220.763 47C220.875 47 221.368 47.27 221.858 47.601C222.349 47.931 223.012 48.337 223.333 48.503C223.654 48.67 224.015 48.967 224.134 49.165C224.254 49.363 224.629 49.64 224.967 49.781C225.686 50.081 227.365 51.2 228.083 51.858C228.358 52.11 228.856 52.43 229.188 52.569C229.521 52.707 230.008 53.001 230.272 53.22C230.535 53.44 231.012 53.751 231.333 53.912C231.654 54.073 232.149 54.425 232.434 54.694C232.719 54.964 233.181 55.312 233.462 55.467C234.307 55.936 235.89 57.011 236.333 57.419C236.563 57.629 237.107 57.967 237.544 58.17C238.881 58.791 238.761 59.957 237.276 60.764C236.804 61.022 236.034 61.536 235.566 61.908C234.83 62.492 233.746 63.221 231.588 64.583C231.297 64.767 230.765 65.147 230.405 65.428C230.045 65.709 229.412 66.143 229 66.392C228.588 66.641 227.8 67.178 227.25 67.586C226.7 67.994 225.918 68.535 225.512 68.789C225.107 69.042 224.497 69.494 224.159 69.792C223.82 70.09 223.463 70.333 223.365 70.333C223.268 70.333 222.695 70.671 222.092 71.083C221.49 71.496 220.927 71.833 220.843 71.833C220.758 71.833 220.065 72.308 219.303 72.889C218.54 73.47 217.242 74.363 216.417 74.874C214.007 76.368 213.808 76.572 213.867 77.482C213.921 78.319 213.78 78.203 216.083 79.3C216.45 79.474 217.688 80.083 218.833 80.651C219.979 81.22 221.329 81.888 221.833 82.137C222.338 82.386 223.5 82.976 224.417 83.45C225.333 83.923 226.983 84.742 228.083 85.269C229.183 85.797 230.285 86.366 230.531 86.534C230.777 86.703 231.302 86.954 231.697 87.093C232.093 87.232 232.679 87.517 233 87.726C233.321 87.935 233.918 88.238 234.328 88.399C234.737 88.561 236.012 89.197 237.161 89.814C238.31 90.43 239.683 91.109 240.213 91.322C240.742 91.535 241.35 91.846 241.563 92.014C241.776 92.182 242.318 92.466 242.767 92.645C243.216 92.824 244.505 93.458 245.632 94.054C246.759 94.649 247.996 95.26 248.382 95.412C248.768 95.564 249.346 95.857 249.667 96.064C249.987 96.27 250.588 96.569 251 96.729C251.412 96.888 252.162 97.267 252.667 97.571C253.171 97.875 253.853 98.21 254.183 98.316C254.512 98.422 255.15 98.742 255.599 99.028C256.049 99.313 256.809 99.681 257.289 99.847C257.769 100.012 258.444 100.366 258.789 100.633C259.194 100.946 259.938 101.252 260.885 101.494C262.594 101.931 262.573 101.942 263.161 100.333C263.346 99.829 263.609 99.229 263.747 99C263.884 98.771 264.231 98.096 264.518 97.5C264.805 96.904 265.176 96.224 265.343 95.988C265.51 95.752 265.842 95.041 266.081 94.408C266.319 93.775 266.651 93.105 266.819 92.92C268.006 91.612 267.932 91.552 260.549 87.808C259.156 87.101 257.693 86.339 257.299 86.113C256.906 85.888 256.283 85.61 255.917 85.495C255.55 85.381 255.047 85.145 254.8 84.971C254.552 84.798 253.92 84.466 253.396 84.234C252.871 84.002 252.261 83.67 252.04 83.496C251.82 83.322 251.221 83.024 250.71 82.832C250.198 82.641 249.586 82.347 249.348 82.178C249.111 82.009 248.434 81.669 247.844 81.421C247.254 81.173 246.542 80.797 246.261 80.585C245.98 80.374 245.382 80.078 244.933 79.927C244.483 79.776 243.896 79.469 243.628 79.243C243.36 79.018 243.062 78.833 242.965 78.833C241.773 78.833 238 76.246 238 75.428C238 75.333 239.397 74.382 240.832 73.5C241.354 73.179 242.023 72.71 242.32 72.458C242.616 72.206 242.921 72 242.997 72C243.073 72 243.437 71.756 243.807 71.458C244.49 70.907 245.469 70.258 246.774 69.49C247.173 69.255 247.705 68.873 247.958 68.641C248.405 68.228 249.549 67.487 251.47 66.363C251.991 66.059 252.621 65.616 252.871 65.377C253.34 64.931 254.027 64.485 255.344 63.771C255.762 63.545 256.212 63.228 256.344 63.068C256.551 62.816 258.21 61.696 260.026 60.583C261.085 59.934 261.053 58.609 259.964 58.006C259.571 57.788 259.025 57.429 258.75 57.207C258.475 56.986 257.912 56.585 257.5 56.317C257.087 56.049 256.511 55.662 256.218 55.456C255.926 55.251 255.158 54.752 254.512 54.346C253.866 53.941 253.168 53.427 252.961 53.205C252.753 52.982 252.171 52.58 251.667 52.312C250.203 51.532 249.122 50.84 248.583 50.337C248.308 50.08 247.755 49.705 247.355 49.504C246.954 49.303 245.975 48.668 245.179 48.093C243.594 46.946 242.711 46.345 241.493 45.583C239.328 44.23 238.483 43.572 238.394 43.168C238.344 42.938 238.271 42.631 238.232 42.486C238.134 42.118 238.591 41.768 239.707 41.358C240.234 41.164 240.964 40.817 241.329 40.586C241.694 40.355 242.056 40.167 242.131 40.167C242.207 40.167 242.678 39.921 243.176 39.621C243.675 39.32 244.346 38.97 244.667 38.841C244.987 38.712 245.55 38.397 245.917 38.141C246.283 37.884 247.013 37.527 247.539 37.347C248.064 37.167 248.814 36.801 249.206 36.534C249.597 36.267 250.217 35.953 250.583 35.836C250.95 35.719 251.662 35.386 252.167 35.096C253.492 34.335 254.185 33.974 256.333 32.927C257.387 32.413 258.587 31.814 259 31.595C261.575 30.228 262.303 29.848 264.29 28.841C267.134 27.398 267.23 27.311 267.108 26.279C267.03 25.622 266 23.895 266 24.422ZM44.277 41.175C43.677 41.647 43.424 42.173 43.002 43.827C42.807 44.59 42.436 45.635 42.177 46.149C41.918 46.663 41.585 47.555 41.438 48.132C41.291 48.708 40.988 49.571 40.765 50.048C40.542 50.526 40.271 51.253 40.163 51.664C40.055 52.075 39.795 52.75 39.586 53.164C39.188 53.951 37.747 57.754 37.249 59.333C37.089 59.837 36.826 60.475 36.662 60.75C36.499 61.025 36.203 61.8 36.005 62.473C35.806 63.146 35.498 63.933 35.32 64.223C35.141 64.513 34.84 65.275 34.65 65.917C34.46 66.558 34.132 67.383 33.922 67.75C33.712 68.117 33.486 68.754 33.419 69.167C33.353 69.579 33.014 70.53 32.666 71.28C32.318 72.03 31.951 73.026 31.85 73.494C31.75 73.962 31.448 74.774 31.179 75.298C30.91 75.821 30.603 76.587 30.495 77C30.388 77.412 30.226 77.841 30.135 77.952C29.947 78.181 30.714 79 31.116 79C31.478 79 32.351 78.507 33.061 77.901C33.416 77.599 33.918 77.305 34.178 77.247C34.438 77.19 34.823 77.009 35.034 76.844C35.244 76.68 35.805 76.349 36.28 76.109C36.755 75.869 37.191 75.595 37.25 75.499C37.309 75.404 37.821 75.093 38.387 74.808C38.953 74.522 39.637 74.104 39.907 73.878C40.177 73.652 40.814 73.283 41.322 73.058C41.831 72.834 42.397 72.511 42.582 72.342C42.766 72.173 43.797 71.571 44.874 71.003C45.95 70.436 46.871 69.907 46.92 69.829C46.968 69.75 47.737 69.258 48.629 68.734C49.521 68.211 50.62 67.552 51.073 67.271C51.525 66.989 52.275 66.583 52.739 66.368C53.203 66.153 53.72 65.851 53.889 65.697C54.057 65.543 54.657 65.192 55.222 64.917C56.514 64.288 56.798 63.447 56.086 62.362C55.866 62.025 55.561 61.375 55.409 60.917C55.257 60.458 54.99 59.928 54.816 59.739C54.642 59.549 54.316 58.928 54.093 58.358C53.87 57.789 53.539 57.081 53.357 56.786C53.175 56.491 52.865 55.837 52.667 55.333C52.47 54.829 52.164 54.262 51.987 54.072C51.81 53.883 51.479 53.252 51.252 52.671C51.024 52.09 50.728 51.493 50.594 51.345C50.46 51.197 50.127 50.527 49.854 49.856C49.581 49.185 49.249 48.512 49.117 48.36C48.984 48.208 48.746 47.683 48.586 47.193C48.427 46.704 48.078 46.054 47.81 45.749C47.543 45.444 47.211 44.816 47.074 44.353C46.769 43.328 45.334 40.937 44.982 40.87C44.842 40.843 44.525 40.98 44.277 41.175ZM45.383 41.542C45.506 41.748 45.836 42.3 46.116 42.769C46.396 43.238 46.755 44.014 46.914 44.493C47.073 44.972 47.409 45.601 47.661 45.89C47.912 46.18 48.285 46.867 48.488 47.417C48.692 47.967 48.961 48.531 49.087 48.67C49.212 48.809 49.483 49.371 49.688 49.92C49.893 50.468 50.193 51.11 50.355 51.347C50.517 51.584 50.918 52.334 51.247 53.014C51.575 53.694 51.987 54.512 52.161 54.833C52.783 55.979 54.004 58.587 54.002 58.767C54.001 58.867 54.232 59.271 54.516 59.663C54.8 60.054 55.171 60.779 55.341 61.272C55.511 61.766 55.766 62.335 55.908 62.538C56.178 62.923 56.244 63.605 56.059 64.088C55.999 64.243 55.483 64.579 54.911 64.836C54.34 65.092 53.817 65.391 53.749 65.501C53.682 65.61 53.203 65.9 52.685 66.145C52.168 66.39 51.408 66.801 50.997 67.059C50.586 67.317 49.538 67.942 48.667 68.447C47.796 68.952 46.933 69.497 46.75 69.657C46.567 69.817 45.668 70.343 44.754 70.825C43.839 71.308 42.774 71.921 42.387 72.187C42 72.454 41.36 72.814 40.966 72.989C40.572 73.163 40.025 73.509 39.75 73.758C39.475 74.007 38.837 74.395 38.333 74.62C37.829 74.845 37.291 75.141 37.138 75.279C36.829 75.555 34.621 76.838 33.583 77.343C33.217 77.522 32.659 77.857 32.343 78.089C31.298 78.856 30.049 78.676 30.505 77.823C30.594 77.658 30.667 77.358 30.667 77.157C30.667 76.956 30.892 76.347 31.168 75.804C31.444 75.261 31.812 74.314 31.986 73.7C32.16 73.086 32.535 72.077 32.82 71.457C33.105 70.838 33.44 69.893 33.565 69.358C33.69 68.823 33.908 68.205 34.049 67.984C34.191 67.764 34.473 67.021 34.677 66.333C34.881 65.646 35.218 64.783 35.427 64.417C35.636 64.05 35.933 63.3 36.087 62.75C36.241 62.2 36.519 61.487 36.705 61.167C36.891 60.846 37.29 59.871 37.592 59C37.894 58.129 38.408 56.648 38.734 55.708C39.06 54.768 39.441 53.824 39.581 53.61C39.721 53.396 40.05 52.587 40.312 51.812C40.574 51.037 40.905 50.178 41.047 49.903C41.19 49.627 41.431 48.923 41.582 48.338C41.734 47.753 42.051 46.893 42.288 46.429C42.525 45.964 42.886 44.974 43.092 44.229C43.781 41.735 44.791 40.55 45.383 41.542Z" fill="#7C747E"/>
</svg>
